<svg xmlns="http://www.w3.org/2000/svg" xmlns:xlink="http://www.w3.org/1999/xlink" version="1.1" width="1280" height="720" viewBox="0 0 1280 720"><defs><linearGradient id="ggrad1" x1="0.5" y1="0" x2="0.5" y2="1"><stop offset="0" stop-color="#FFFFFF" stop-opacity="0"/><stop offset="1" stop-color="#3F3F3F" stop-opacity="0.15"/></linearGradient><linearGradient id="ggrad2" x1="0.5" y1="0" x2="0.5" y2="1"><stop offset="0" stop-color="#FFFFFF" stop-opacity="0"/><stop offset="1" stop-color="#3F3F3F" stop-opacity="0.11"/></linearGradient><linearGradient id="ggrad3" x1="0.5" y1="0" x2="0.5" y2="1"><stop offset="0" stop-color="#FFFFFF" stop-opacity="0.03"/><stop offset="1" stop-color="#3F3F3F" stop-opacity="0.18"/></linearGradient><filter id="fx1" x="-25%" y="-25%" width="150%" height="150%"><feDropShadow dx="0" dy="0" stdDeviation="20" flood-color="#000000" flood-opacity="0.1"/></filter><linearGradient id="ggrad4" x1="0.5" y1="0" x2="0.5" y2="1"><stop offset="0" stop-color="#FFFFFF" stop-opacity="0"/><stop offset="1" stop-color="#3F3F3F"/></linearGradient><filter id="fx2" x="-25%" y="-25%" width="150%" height="150%"><feDropShadow dx="0" dy="0" stdDeviation="20" flood-color="#000000" flood-opacity="0.1"/></filter></defs><g id="layout-shape-33" data-name="PA-矩形 7">
<rect x="0" y="0" width="1280" height="720" fill="#006C39" stroke="none" stroke-width="1"/>
</g>
<g id="layout-shape-119" data-name="任意多边形: 形状 118" transform="rotate(31.95 612.13 479.72)">
<path d="M 344.55 292.76 C 556.99 163.04 779.76 48.53 1011.35 -49.25 L 1046.18 -63.45 L 1290.29 327.99 L 1190.29 380.03 C 859.57 556.46 546.44 761.44 254.21 991.69 L 215.15 1022.89 L -66.03 572.01 L -65.58 571.67 C 37.96 493.58 144.61 419.39 254.15 349.29 C 284.07 330.14 314.21 311.3 344.55 292.76 Z" fill="url(#ggrad1)" stroke="none" stroke-width="1"/>
</g>
<g id="layout-shape-106" data-name="任意多边形: 形状 105" transform="rotate(48.1 683.44 326.3)">
<path d="M 749.57 -161.29 C 776.73 -191.22 804.24 -220.83 832.1 -250.1 L 892.21 -311.77 L 1252.67 11.7 L 397.78 964.36 L 114.22 709.9 L 141.63 662.4 C 316.46 367.16 520.43 91.27 749.57 -161.29 Z" fill="url(#ggrad2)" stroke="none" stroke-width="1"/>
</g>
<g id="layout-shape-118" data-name="任意多边形: 形状 117" transform="rotate(30.78 631.82 548.72)">
<path d="M 803.09 68.82 C 872.84 27.65 943.62 -12.02 1015.38 -50.15 L 1028 -56.66 L 1295.91 393.1 L 1253.36 419.07 C 913.95 629.03 595.03 867.82 300.2 1131.93 L 275.76 1154.1 L 148.17 979.11 L -32.26 676.2 L -29.95 674.13 C 126.38 535.99 291.01 406.67 463.11 286.96 C 573.43 210.23 686.83 137.44 803.09 68.82 Z" fill="url(#ggrad3)" stroke="none" stroke-width="1"/>
</g>
<g id="layout-shape-49" data-name="任意多边形: 形状 83">
<path d="M 640 314.78 C 850.83 314.78 1046.69 336.78 1209.17 374.45 L 1280 392.63 L 1280 698.62 L 0 698.62 L 0 392.63 L 70.83 374.45 C 233.31 336.78 429.17 314.78 640 314.78 Z" fill="#FFFFFF" stroke="none" stroke-width="1" filter="url(#fx1)"/>
</g>
<g id="layout-shape-50" data-name="任意多边形: 形状 83">
<path d="M 640 317.02 C 850.83 317.02 1046.69 339.01 1209.17 376.69 L 1280 394.86 L 1280 700.85 L 0 700.85 L 0 394.86 L 70.83 376.69 C 233.31 339.01 429.17 317.02 640 317.02 Z" fill="#A13F0B" stroke="none" stroke-width="1"/>
</g>
<g id="layout-shape-102" data-name="任意多边形: 形状 101" transform="rotate(44.6 0 706.18)">
<path d="M -176.53 527.17 L 176.53 885.19 L 176.53 885.19 L -176.53 527.17 Z" fill="url(#ggrad4)" stroke="none" stroke-width="1"/>
</g>
<g id="layout-shape-84" data-name="任意多边形: 形状 83">
<path d="M 640 336.17 C 850.83 336.17 1046.69 358.16 1209.17 395.83 L 1280 414.01 L 1280 720 L 0 720 L 0 414.01 L 70.83 395.83 C 233.31 358.16 429.17 336.17 640 336.17 Z" fill="#FFFFFF" stroke="none" stroke-width="1" filter="url(#fx2)"/>
</g>
<g id="layout-shape-48" data-name="标题 47" data-ph-type="title">
<rect x="54.17" y="394.55" width="1171.67" height="138.94" fill="#F8FAFC" fill-opacity="0.18" stroke="#94A3B8" stroke-dasharray="6 4" stroke-width="1"/><text x="62.17" y="412.55" font-size="12" fill="#64748B">ph title</text>
</g>
<g id="layout-shape-38" data-name="文本占位符 53" data-ph-type="body">
<rect x="224.81" y="580.39" width="830.37" height="39.1" fill="#F8FAFC" fill-opacity="0.18" stroke="#94A3B8" stroke-dasharray="6 4" stroke-width="1"/><text x="232.81" y="598.39" font-size="12" fill="#64748B">ph body idx=16</text>
</g>
<g id="layout-shape-18" data-name="直接连接符 17">
<line x1="221.37" y1="555.95" x2="1058.63" y2="555.95" stroke-width="4" stroke="#006C39" fill="#006C39"/>
</g>
<g id="layout-shape-2" data-name="图片 1">
<image href="../assets/image7.png" x="405.9" y="99.2" width="473.58" height="132.56" preserveAspectRatio="none"/>
</g>
<g id="layout-shape-51" data-name="文本框 50">
<rect x="15.84" y="639.23" width="226.41" height="64.82" fill="none" stroke="none"/>
<text x="34.73" y="674" text-anchor="start" xml:space="preserve" font-family="&quot;微软雅黑&quot;, +mn-cs, sans-serif" font-size="18.67" fill="#A2A2A2" font-weight="bold" letter-spacing="1.33"><tspan fill="#A2A2A2" font-size="18.67" font-weight="bold" letter-spacing="1.33">BIT</tspan><tspan fill="#A2A2A2" font-size="18.67" letter-spacing="1.33"> </tspan><tspan fill="#A2A2A2" font-size="18.67" font-weight="bold" letter-spacing="1.33">|</tspan><tspan fill="#A2A2A2" font-size="18.67" letter-spacing="1.33"> </tspan><tspan fill="#A2A2A2" font-size="18.67" font-weight="bold" letter-spacing="1.33">SINCE 1940</tspan></text>
</g>
<g id="layout-shape-3" data-name="组合 2">
<g id="layout-shape-40" data-name="组合 39">
<g id="layout-shape-70" data-name="Freeform 5">
<path d="M 1220.96 668.05 C 1221.86 667.54 1222.63 667.03 1222.63 665.88 C 1222.63 665.49 1222.89 664.98 1223.01 664.6 C 1223.14 664.47 1223.53 664.22 1223.66 664.22 C 1224.3 664.34 1224.94 664.98 1224.94 665.75 C 1224.94 666.13 1225.07 666.26 1225.33 666.39 C 1225.71 666.64 1226.1 667.03 1226.23 667.41 C 1226.49 667.92 1226.1 668.17 1225.59 668.05 C 1225.33 667.92 1225.07 667.79 1224.69 667.66 C 1224.17 667.41 1223.91 667.54 1223.79 668.17 C 1223.53 669.58 1223.27 670.98 1224.04 672.26 C 1224.3 672 1224.56 671.75 1224.81 671.24 C 1225.2 671.75 1225.46 672.13 1225.71 672.64 C 1226.1 672.26 1226.62 671.75 1227 671.37 C 1227.13 671.24 1227 670.98 1227 670.86 C 1226.87 670.6 1226.49 670.34 1226.49 670.22 C 1226.62 669.83 1227 669.71 1227.39 669.83 C 1227.52 669.83 1227.64 669.83 1227.77 669.83 C 1227.77 669.45 1227.9 668.94 1228.03 668.3 C 1227.13 668.68 1226.49 668.94 1225.71 669.2 C 1225.2 669.45 1225.07 669.45 1224.69 668.94 C 1224.94 668.81 1225.2 668.68 1225.46 668.56 C 1226.23 668.3 1227 668.05 1227.77 667.66 C 1228.03 667.66 1228.16 667.41 1228.29 667.28 C 1228.54 666.51 1228.67 665.62 1228.93 664.85 C 1228.93 664.6 1229.19 664.22 1229.32 664.09 C 1229.44 663.83 1229.7 663.83 1229.96 663.83 C 1229.96 663.96 1230.09 664.34 1230.09 664.47 C 1229.32 665.37 1229.44 666.39 1229.19 667.41 C 1229.96 667.79 1230.86 667.03 1231.63 667.66 C 1231.37 668.05 1231.12 668.43 1230.6 668.3 C 1230.6 668.17 1230.47 668.17 1230.47 668.17 C 1229.19 668.17 1228.67 668.81 1228.93 670.09 C 1229.06 670.47 1229.32 670.86 1229.57 671.37 C 1230.09 671.37 1230.73 671.24 1231.37 671.11 C 1232.02 670.98 1232.66 671.24 1233.17 671.62 C 1233.43 671.88 1233.43 672.26 1233.05 672.39 C 1232.53 672.64 1232.02 672.9 1231.5 672.9 C 1230.6 672.77 1230.09 673.41 1229.57 673.92 C 1229.96 674.05 1230.47 674.05 1230.73 674.3 C 1230.99 674.43 1231.25 674.81 1231.37 675.07 C 1231.5 677.11 1231.63 679.03 1231.76 680.94 C 1231.76 681.32 1231.5 681.71 1231.5 681.96 C 1231.12 681.83 1230.73 681.83 1230.47 681.71 C 1229.83 681.2 1229.32 680.56 1228.93 680.05 C 1228.8 679.92 1228.8 679.66 1228.8 679.54 C 1229.19 679.79 1229.7 680.05 1230.22 680.43 C 1230.22 680.3 1230.34 680.3 1230.34 680.17 C 1230.34 679.28 1230.34 678.26 1230.34 677.24 C 1230.34 676.73 1230.34 676.09 1230.34 675.58 C 1230.09 674.69 1229.7 674.56 1228.93 675.32 C 1229.19 675.71 1229.83 675.71 1229.83 676.47 C 1229.44 676.34 1229.06 676.22 1228.67 676.09 C 1228.16 676.6 1228.16 676.73 1228.93 676.98 C 1229.57 677.37 1229.96 678 1229.7 678.13 C 1229.19 678.52 1228.8 678.13 1228.42 677.88 C 1228.29 677.88 1228.16 677.75 1228.03 677.62 C 1227.9 678.13 1227.9 678.64 1227.77 679.15 C 1226.87 678.9 1226.62 678.39 1226.74 677.62 C 1227.13 675.96 1227.77 674.43 1228.67 672.9 C 1228.16 673.28 1227.64 673.54 1227.13 673.79 C 1226.49 674.17 1225.71 674.56 1225.07 674.94 C 1225.07 674.94 1225.07 674.94 1224.94 674.94 C 1224.69 675.07 1224.3 675.07 1224.17 675.2 C 1223.91 675.71 1223.66 676.22 1223.66 676.73 C 1223.66 677.88 1223.79 679.03 1223.91 680.17 C 1223.91 680.56 1223.91 680.94 1223.91 681.32 C 1223.53 681.2 1223.14 681.2 1222.89 680.94 C 1222.5 680.69 1222.11 680.43 1222.24 679.79 C 1222.5 679.03 1222.37 678.26 1222.37 677.49 C 1222.24 677.49 1222.24 677.49 1222.11 677.37 C 1221.98 677.75 1221.73 678 1221.6 678.39 C 1221.21 679.15 1220.57 679.41 1220.06 679.15 C 1219.41 678.9 1219.28 678.26 1219.54 677.62 C 1219.93 676.47 1220.31 675.45 1220.7 674.17 C 1219.8 675.32 1218.9 674.69 1218 674.17 C 1217.35 673.92 1217.35 673.54 1218 673.15 C 1219.28 672.51 1220.57 671.75 1221.73 670.98 C 1221.86 670.86 1222.11 670.73 1222.11 670.47 C 1222.24 669.71 1222.24 668.81 1222.24 668.05 C 1222.24 667.92 1222.24 667.92 1222.11 667.92 C 1221.47 668.94 1220.83 669.96 1220.18 670.86 C 1220.18 670.98 1220.18 670.98 1220.31 671.11 C 1219.93 670.98 1219.54 670.98 1219.16 670.86 C 1218.51 670.6 1218.25 670.09 1218.51 669.45 C 1218.64 669.2 1218.64 668.81 1218.77 668.43 C 1219.03 667.41 1219.67 666.77 1220.7 666.39 C 1220.83 666.26 1221.21 666.39 1221.47 666.64 C 1221.73 666.77 1221.47 667.03 1221.34 667.28 C 1221.08 667.41 1221.08 667.79 1220.96 668.05 Z" fill="#A2A2A2" stroke="none"/>
</g>
<g id="layout-shape-71" data-name="Freeform 6">
<path d="M 1244.55 676.93 C 1245.06 676.68 1245.45 676.55 1245.96 676.55 C 1246.6 676.42 1247.25 676.3 1247.89 676.3 C 1248.79 676.42 1249.56 678.08 1249.17 678.98 C 1249.05 679.11 1248.92 679.24 1248.79 679.24 C 1248.02 679.36 1247.25 679.24 1246.6 679.49 C 1245.7 679.87 1244.8 680.26 1243.9 680.77 C 1243.39 681.02 1243 681.15 1242.36 680.77 C 1241.2 680 1240.69 678.72 1240.43 677.45 C 1240.3 677.19 1240.43 676.93 1240.56 676.68 C 1241.46 674.89 1242.36 672.97 1243.26 671.18 C 1243.26 671.06 1243.26 670.8 1243.13 670.54 C 1242.75 670.16 1242.23 669.78 1241.85 669.27 C 1241.59 668.88 1241.72 668.63 1242.23 668.5 C 1243 668.37 1243.65 668.12 1244.42 667.86 C 1245.96 667.22 1247.63 667.99 1248.02 669.52 C 1248.15 669.91 1248.02 670.29 1247.89 670.54 C 1247.63 670.93 1247.25 671.44 1246.99 671.82 C 1246.22 673.36 1245.45 674.89 1244.67 676.42 C 1244.67 676.42 1244.67 676.68 1244.55 676.93 Z" fill="#A2A2A2" stroke="none"/>
</g>
<g id="layout-shape-72" data-name="组合 71">
<g id="layout-shape-77" data-name="Freeform 7">
<path d="M 1190.6 669.94 C 1189.7 669.17 1188.02 669.17 1187.12 669.69 C 1187 669.81 1186.61 669.94 1186.35 669.81 C 1185.58 669.69 1184.94 669.81 1184.17 670.07 C 1183.52 670.32 1182.88 670.58 1182.24 670.83 C 1181.72 671.09 1181.34 671.34 1181.21 671.86 C 1180.7 673 1180.18 674.28 1179.67 675.56 C 1179.67 675.69 1179.41 675.94 1179.28 675.81 C 1178.77 675.69 1178.25 675.3 1177.74 675.05 C 1177.61 674.92 1177.61 674.66 1177.61 674.41 C 1178.25 673 1178.89 671.6 1179.54 670.2 C 1179.54 670.07 1179.67 670.07 1179.67 669.94 C 1179.92 669.69 1180.05 669.17 1180.18 669.17 C 1180.7 669.17 1181.34 669.17 1181.72 669.43 C 1182.11 669.56 1182.24 669.69 1182.62 669.56 C 1184.94 668.92 1186.1 667.26 1186.87 665.22 C 1186.87 665.09 1187 664.83 1187.12 664.58 C 1187.12 664.32 1187.12 664.2 1187.12 663.94 C 1187.12 663.94 1186.87 663.81 1186.74 663.94 C 1186.61 664.07 1186.35 664.2 1186.35 664.45 C 1186.22 664.71 1186.35 664.96 1186.35 665.22 C 1186.48 666.11 1186.35 666.37 1185.2 666.24 C 1184.94 666.24 1184.68 666.11 1184.42 665.98 C 1184.17 665.85 1183.91 665.73 1183.65 665.6 C 1183.65 665.98 1183.65 666.24 1183.65 666.62 C 1183.65 666.75 1183.65 666.75 1183.65 666.88 C 1183.65 667.39 1183.78 668.03 1183.14 668.28 C 1182.62 668.41 1181.98 668.15 1181.6 667.51 C 1181.21 666.88 1180.82 666.24 1181.34 665.47 C 1181.6 665.09 1181.6 664.71 1181.85 664.32 C 1181.98 664.07 1182.11 663.68 1182.24 663.68 C 1182.5 663.81 1182.75 663.94 1183.01 664.2 C 1183.01 664.2 1183.14 664.45 1183.27 664.58 C 1183.78 664.2 1184.3 663.94 1184.94 664.32 C 1185.07 664.45 1185.45 664.2 1185.58 663.94 C 1186.48 663.17 1187.25 662.54 1188.41 662.54 C 1189.05 662.54 1189.57 662.79 1189.95 663.43 C 1190.34 663.94 1190.21 664.45 1189.95 665.09 C 1189.31 665.98 1188.8 667 1188.28 668.03 C 1188.92 668.03 1189.31 668.15 1189.7 668.15 C 1191.11 668.41 1192.4 668.92 1193.3 670.07 C 1194.07 670.83 1193.94 671.22 1193.04 671.86 C 1192.14 672.37 1191.11 672.37 1190.21 671.86 C 1189.82 671.6 1189.82 671.34 1190.08 670.96 C 1190.21 670.71 1190.47 670.32 1190.6 669.94 Z" stroke="none" fill="none"/>
</g>
<g id="layout-shape-78" data-name="Freeform 8">
<path d="M 1186.99 674.4 C 1187.89 674.52 1188.66 674.65 1189.43 674.4 C 1190.19 674.14 1191.35 675.04 1191.22 675.93 C 1191.22 676.06 1190.84 676.19 1190.58 676.19 C 1190.07 676.19 1189.43 676.19 1188.78 676.19 C 1187.89 676.06 1187.76 676.31 1187.76 677.08 C 1187.63 678.61 1187.63 680.27 1187.37 681.8 C 1187.25 682.83 1186.86 682.95 1185.84 682.83 C 1184.3 682.44 1183.01 681.17 1183.78 679.38 C 1183.78 679.12 1183.78 678.87 1183.91 678.61 C 1184.17 678.99 1184.55 679.51 1184.94 679.89 C 1185.32 680.4 1186.09 680.27 1186.22 679.63 C 1186.35 678.61 1186.48 677.59 1186.6 676.57 C 1185.58 676.44 1184.94 676.95 1184.17 677.33 C 1183.91 677.33 1183.78 677.59 1183.53 677.59 C 1182.89 678.1 1182.5 677.97 1181.86 677.59 C 1181.48 677.21 1181.09 676.31 1181.35 675.8 C 1181.35 675.67 1181.73 675.42 1181.86 675.42 C 1182.89 675.67 1183.66 675.16 1184.68 674.91 C 1184.81 674.91 1185.07 674.78 1185.32 674.78 C 1185.07 674.14 1185.07 673.76 1185.71 673.5 C 1186.09 673.12 1186.48 672.61 1186.99 672.23 C 1186.86 672.1 1186.86 672.1 1186.86 671.97 C 1185.96 672.35 1185.19 672.61 1184.43 672.86 C 1183.91 673.12 1183.4 673.5 1183.01 673.76 C 1182.5 674.01 1181.99 674.14 1181.73 673.5 C 1181.6 673.25 1181.48 673.12 1181.22 672.86 C 1182.76 672.23 1184.3 671.46 1185.71 670.95 C 1186.48 670.69 1187.37 670.69 1188.14 670.69 C 1188.4 670.69 1188.78 671.2 1188.91 671.46 C 1189.04 671.72 1188.91 672.1 1188.66 672.35 C 1188.14 672.99 1187.63 673.63 1186.99 674.4 Z" stroke="none" fill="none"/>
</g>
</g>
<g id="layout-shape-73" data-name="组合 72">
<g id="layout-shape-74" data-name="Freeform 15">
<path d="M 1202.41 674.19 C 1202.76 673.17 1203.23 672.27 1203.71 671.38 C 1203.82 671.13 1203.94 670.87 1204.18 670.62 C 1204.29 670.87 1204.41 671 1204.53 671.25 C 1204.88 672.02 1205.12 672.91 1204.65 673.8 C 1204.06 674.82 1203.47 675.97 1202.88 677.12 C 1202.65 677.63 1201.94 677.88 1201.59 677.76 C 1200.76 677.37 1200.52 676.86 1200.64 675.97 C 1200.76 674.44 1200.88 672.78 1201 671.25 C 1201 671 1201 670.49 1201.47 670.49 C 1201.82 670.49 1202.29 670.62 1202.29 671.25 C 1202.29 671.76 1202.17 672.4 1202.17 673.04 C 1202.17 673.42 1202.17 673.68 1202.17 674.06 C 1202.17 674.06 1202.29 674.06 1202.41 674.19 Z" stroke="none" fill="none"/>
</g>
<g id="layout-shape-75" data-name="Freeform 16">
<path d="M 1206.43 677.01 C 1206.22 676.78 1206.01 676.54 1205.79 676.3 C 1205.58 675.95 1205.47 675.59 1205.79 675.12 C 1206.43 674.41 1206.96 673.7 1207.6 672.87 C 1208.03 672.16 1208.46 671.45 1208.99 670.74 C 1209.31 670.15 1209.31 669.43 1208.99 668.84 C 1208.88 668.72 1208.88 668.61 1208.88 668.49 C 1208.88 668.49 1208.99 668.37 1208.99 668.37 C 1209.31 668.61 1209.63 668.84 1209.84 669.08 C 1210.38 669.67 1210.48 670.74 1210.06 671.45 C 1209.63 672.28 1209.1 673.11 1208.56 674.05 C 1208.56 674.17 1208.56 674.53 1208.67 674.53 C 1209.52 675.12 1209.52 676.07 1209.74 677.01 C 1209.84 677.37 1209.84 677.84 1209.84 678.32 C 1209.84 678.67 1209.63 678.79 1209.42 678.55 C 1208.99 678.2 1208.78 677.96 1208.78 677.25 C 1208.78 676.66 1208.67 676.07 1208.46 675.47 C 1208.35 674.88 1208.14 675 1207.82 675.36 C 1207.39 675.95 1206.96 676.42 1206.43 677.01 Z" stroke="none" fill="none"/>
</g>
<g id="layout-shape-76" data-name="Freeform 17">
<path d="M 1203.13 668.12 C 1204.15 668.22 1204.91 668.22 1205.67 668.22 C 1206.18 668.22 1206.43 668.93 1206.05 669.33 C 1205.79 669.73 1205.29 670.04 1204.65 669.94 C 1204.15 669.94 1203.77 669.63 1203.51 669.23 C 1203.38 668.93 1203.26 668.52 1203.13 668.12 Z" stroke="none" fill="none"/>
</g>
</g>
</g>
<g id="layout-shape-41" data-name="组合 40">
<g id="layout-shape-42" data-name="组合 41">
<g id="layout-shape-68" data-name="Freeform 9">
<path d="M 1123.45 676.78 C 1122.42 677.55 1121.52 678.19 1120.62 678.82 C 1120.24 679.21 1119.85 679.08 1119.47 678.82 C 1118.95 678.31 1118.44 677.8 1118.44 676.91 C 1119.21 677.29 1119.98 677.04 1120.62 676.15 C 1120.37 676.02 1120.11 675.76 1119.72 675.51 C 1119.34 675.25 1119.34 674.87 1119.47 674.49 C 1119.85 672.96 1120.37 671.43 1120.75 669.77 C 1120.88 669.39 1121.01 668.88 1121.78 669 C 1122.55 669.13 1123.07 669.51 1123.07 670.15 C 1123.07 670.15 1123.07 670.28 1123.07 670.28 C 1122.94 671.05 1123.32 671.56 1123.97 671.94 C 1123.97 670.79 1123.84 669.64 1123.84 668.37 C 1122.29 668.88 1121.01 668.37 1121.14 667.47 C 1122.17 667.22 1123.07 666.96 1124.09 666.96 C 1125.38 666.84 1126.02 667.86 1125.77 669 C 1125.64 670.28 1125.64 671.68 1125.64 672.96 C 1125.64 673.21 1125.77 673.47 1125.77 673.85 C 1125.77 674.23 1125.64 674.62 1125.51 675 C 1125.51 675.25 1125.38 675.51 1125.38 675.89 C 1125.25 676.91 1125.25 677.93 1125.12 678.95 C 1125.12 679.21 1124.99 679.59 1124.74 679.72 C 1124.48 679.72 1124.09 679.59 1123.97 679.33 C 1123.45 678.95 1123.07 678.57 1123.32 677.8 C 1123.45 677.55 1123.45 677.17 1123.45 676.78 Z M 1123.84 672.83 C 1123.45 672.7 1123.07 672.58 1122.55 672.45 C 1122.42 673.34 1122.29 674.11 1122.17 675 C 1123.45 674.62 1123.84 674.11 1123.84 672.83 Z" stroke="none" fill="none"/>
</g>
<g id="layout-shape-69" data-name="Freeform 10">
<path d="M 1127.3 677.05 C 1127.17 677.56 1127.17 677.94 1127.17 678.45 C 1127.04 678.71 1127.04 678.96 1126.65 678.96 C 1126.27 678.96 1125.88 678.84 1126.01 678.33 C 1126.14 677.69 1126.14 677.05 1126.27 676.41 C 1126.78 674.37 1127.17 672.46 1127.69 670.41 C 1127.95 669.39 1128.33 668.24 1128.72 667.1 C 1129.24 667.35 1129.37 667.61 1129.24 668.12 C 1128.98 668.88 1128.72 669.78 1128.46 670.8 C 1128.85 670.41 1129.11 670.29 1129.37 670.16 C 1129.76 669.9 1130.27 669.78 1130.4 669.52 C 1130.53 668.63 1130.66 667.73 1130.14 666.84 C 1130.14 666.71 1129.76 666.59 1129.5 666.71 C 1129.11 666.84 1128.72 667.1 1128.33 667.22 C 1128.08 667.35 1127.82 667.61 1127.43 667.61 C 1127.3 667.61 1127.04 667.35 1127.04 667.1 C 1126.91 667.1 1127.17 666.84 1127.3 666.71 C 1128.08 666.2 1128.85 665.69 1129.89 665.69 C 1131.18 665.82 1131.82 666.33 1131.7 667.61 C 1131.7 668.88 1131.7 670.29 1131.57 671.56 C 1131.57 672.07 1131.7 672.33 1132.08 672.58 C 1132.99 673.35 1132.99 674.11 1132.08 674.75 C 1131.7 674.88 1131.57 675.14 1131.57 675.52 C 1131.7 676.92 1131.57 678.33 1131.57 679.73 C 1131.57 679.98 1131.7 680.11 1131.57 680.24 C 1131.44 680.5 1131.31 681.01 1131.18 681.01 C 1130.79 681.01 1130.27 681.01 1130.02 680.75 C 1129.11 679.6 1128.33 678.45 1127.56 677.3 C 1127.43 677.18 1127.43 677.18 1127.43 677.05 C 1127.3 677.05 1127.3 677.05 1127.3 677.05 Z M 1128.98 675.39 C 1128.85 675.26 1128.85 675.26 1128.85 675.14 C 1128.98 675.01 1129.24 674.88 1129.37 674.75 C 1129.63 674.62 1129.89 674.5 1130.14 674.24 C 1130.4 674.11 1130.4 673.73 1130.02 673.73 C 1129.37 673.48 1128.98 673.09 1128.72 672.33 C 1128.08 673.99 1127.56 675.52 1128.21 677.05 C 1128.59 678.07 1129.37 678.58 1130.14 679.35 C 1130.27 678.07 1130.27 676.79 1130.4 675.52 C 1130.4 675.52 1130.02 675.26 1129.89 675.26 C 1129.63 675.26 1129.24 675.39 1128.98 675.39 Z" stroke="none" fill="none"/>
</g>
</g>
<g id="layout-shape-43" data-name="组合 42">
<g id="layout-shape-66" data-name="Freeform 13">
<path d="M 1084.67 671.64 C 1084.92 671.77 1085.18 671.89 1085.44 672.02 C 1085.83 671.77 1086.21 671.51 1086.6 671.25 C 1085.95 670.36 1086.86 669.85 1086.99 669.08 C 1086.6 669.08 1086.08 669.08 1085.7 668.95 C 1085.44 668.82 1085.05 668.57 1084.79 668.31 C 1084.79 668.18 1084.92 668.18 1084.92 668.18 C 1085.57 668.06 1086.08 668.06 1086.73 667.93 C 1087.24 667.93 1087.5 667.67 1087.63 667.16 C 1088.15 665.75 1088.66 664.35 1089.18 663.07 C 1089.31 662.68 1089.31 662.3 1089.82 662.55 C 1090.34 662.81 1090.6 663.45 1090.21 663.71 C 1089.18 664.73 1089.18 666.14 1088.79 667.54 C 1089.44 667.29 1090.21 667.03 1090.86 666.9 C 1091.11 666.78 1091.5 666.78 1091.63 666.9 C 1091.89 667.03 1092.14 667.29 1092.14 667.54 C 1092.14 667.67 1092.02 667.93 1091.76 667.93 C 1090.86 668.18 1089.95 668.44 1089.05 668.7 C 1088.53 668.7 1088.41 668.82 1088.28 669.21 C 1088.02 669.72 1087.89 670.1 1087.63 670.61 C 1089.05 670.36 1090.34 670.23 1091.63 670.74 C 1092.14 670.87 1092.66 671.13 1092.66 671.77 C 1092.79 672.41 1092.53 672.92 1091.89 673.17 C 1091.76 673.17 1091.63 673.3 1091.5 673.43 C 1091.76 673.56 1092.02 673.56 1092.14 673.68 C 1092.66 673.94 1092.92 674.32 1092.79 674.84 C 1092.66 675.35 1092.27 675.48 1091.89 675.48 C 1091.37 675.48 1090.86 675.6 1090.34 675.6 C 1089.57 675.73 1088.92 676.5 1089.05 677.27 C 1089.18 677.27 1089.44 677.27 1089.57 677.14 C 1090.73 676.5 1091.89 676.24 1093.18 676.24 C 1093.69 676.37 1094.08 676.5 1094.47 676.63 C 1094.98 676.88 1094.98 677.27 1094.72 677.65 C 1094.59 678.03 1094.21 678.03 1093.95 677.91 C 1092.79 677.4 1091.89 677.65 1090.98 678.03 C 1091.5 678.93 1092.14 679.83 1092.79 680.72 C 1092.92 680.98 1092.92 681.49 1092.79 681.75 C 1092.79 681.87 1092.27 681.87 1092.02 681.87 C 1090.21 681.49 1088.41 680.98 1086.99 679.95 C 1086.47 679.57 1086.08 679.19 1085.57 678.8 C 1085.44 678.67 1085.31 678.55 1085.31 678.42 C 1085.31 678.16 1085.31 677.91 1085.31 677.78 C 1085.57 677.78 1085.83 677.78 1085.95 677.78 C 1086.08 677.91 1086.21 678.03 1086.34 678.29 C 1087.5 679.44 1088.79 680.08 1090.34 680.21 C 1090.47 680.21 1090.47 680.21 1090.6 680.21 C 1090.34 679.7 1090.08 679.19 1089.82 678.67 C 1089.82 678.67 1089.57 678.55 1089.44 678.55 C 1087.63 678.42 1087.5 678.16 1087.63 676.5 C 1087.63 676.37 1087.63 676.24 1087.63 676.12 C 1087.24 676.24 1086.86 676.24 1086.47 676.37 C 1086.08 676.5 1085.57 676.63 1085.18 676.76 C 1084.67 676.88 1084.15 677.01 1083.76 676.5 C 1083.25 675.99 1083.25 675.35 1083.38 674.71 C 1083.38 674.58 1083.63 674.58 1083.89 674.58 C 1084.28 674.58 1084.67 674.58 1085.05 674.71 C 1084.67 673.81 1084.41 673.05 1084.02 672.28 C 1083.63 672.92 1083.25 673.56 1082.86 674.2 C 1082.73 674.32 1082.73 674.58 1082.86 674.84 C 1082.86 675.09 1082.99 675.48 1082.99 675.73 C 1082.6 677.78 1082.22 679.7 1081.96 681.62 C 1081.83 681.75 1081.83 681.87 1081.83 682 C 1080.67 681.87 1080.28 681.36 1080.41 680.34 C 1080.67 679.44 1080.8 678.42 1081.05 677.4 C 1080.41 678.03 1080.02 677.91 1079.38 677.4 C 1078.86 676.88 1078.48 676.24 1078.48 675.48 C 1078.48 675.35 1078.6 675.22 1078.6 675.09 C 1079.38 673.94 1080.28 672.79 1080.93 671.51 C 1081.31 670.87 1081.57 670.1 1081.83 669.33 C 1081.96 669.21 1081.7 669.08 1081.7 668.82 C 1080.8 667.8 1080.8 667.29 1081.44 666.14 C 1081.96 665.24 1082.6 664.47 1083.5 664.09 C 1084.28 663.71 1084.92 663.83 1085.31 664.35 C 1085.7 664.86 1085.7 665.11 1085.05 665.37 C 1084.15 665.62 1083.76 666.26 1083.25 666.9 C 1083.12 667.29 1083.12 667.67 1083.5 667.93 C 1083.76 668.06 1083.89 668.31 1084.02 668.44 C 1085.18 669.72 1085.44 670.23 1084.67 671.64 Z M 1088.66 673.68 C 1088.79 673.68 1088.79 673.81 1088.92 673.81 C 1089.44 673.3 1090.08 672.66 1090.73 672.02 C 1090.98 671.64 1090.73 671.38 1090.34 671.38 C 1089.82 671.38 1089.44 671.38 1088.92 671.38 C 1088.92 671.89 1088.92 672.15 1088.92 672.53 C 1088.92 672.92 1088.79 673.3 1088.66 673.68 Z M 1088.28 671.64 C 1087.89 671.77 1087.63 671.89 1087.37 672.15 C 1087.24 672.15 1087.12 672.28 1087.12 672.41 C 1087.12 673.05 1087.24 673.56 1087.24 674.07 C 1088.02 673.94 1088.41 672.92 1088.28 671.64 Z M 1086.6 672.66 C 1085.57 673.05 1085.44 673.17 1085.7 673.56 C 1085.95 674.32 1086.21 674.45 1086.86 674.2 C 1086.73 673.68 1086.6 673.17 1086.6 672.66 Z" stroke="none" fill="none"/>
</g>
<g id="layout-shape-67" data-name="Freeform 14">
<path d="M 1084.16 677.66 C 1084.93 678.04 1085.06 678.43 1084.93 679.06 C 1084.55 680.34 1084.42 681.74 1084.16 683.15 C 1083.78 682.89 1083.52 682.76 1083.26 682.64 C 1083.14 682.51 1083.01 682.38 1083.01 682.13 C 1083.39 680.72 1083.78 679.19 1084.16 677.66 Z" stroke="none" fill="none"/>
</g>
</g>
<g id="layout-shape-44" data-name="组合 43">
<g id="layout-shape-63" data-name="Freeform 18">
<path d="M 1110.87 677.67 C 1110.09 677.8 1109.83 677.42 1109.71 676.78 C 1109.45 676.02 1109.06 675.13 1108.8 674.36 C 1108.67 673.98 1108.42 673.85 1108.03 674.11 C 1107.39 674.75 1106.61 675.25 1105.97 675.89 C 1105.58 676.27 1105.45 676.14 1105.19 675.89 C 1104.55 675.13 1104.55 674.75 1105.32 674.11 C 1106.23 673.22 1107.13 672.46 1108.03 671.56 C 1108.67 670.93 1109.19 670.17 1109.71 669.53 C 1109.71 669.4 1109.83 669.15 1109.83 669.02 C 1109.71 668.64 1109.96 668.26 1110.35 668.26 C 1110.74 668.26 1111.12 668.38 1111.38 668.64 C 1111.9 669.02 1111.9 670.29 1111.38 670.8 C 1110.74 671.56 1109.96 672.33 1109.32 673.09 C 1110.22 674.49 1110.87 676.02 1110.87 677.67 Z" stroke="none" fill="none"/>
</g>
<g id="layout-shape-64" data-name="Freeform 19">
<path d="M 1102.37 674.49 C 1102.75 673.6 1103.01 672.57 1103.4 671.54 C 1103.52 671.28 1103.52 670.64 1104.04 670.77 C 1104.55 670.9 1104.29 671.41 1104.17 671.8 C 1103.78 673.08 1103.27 674.37 1102.88 675.65 C 1102.75 676.16 1102.63 676.8 1102.5 677.32 C 1102.37 677.7 1102.11 677.7 1101.73 677.57 C 1100.96 677.06 1100.83 676.93 1101.09 675.91 C 1101.21 675.52 1101.21 675.14 1101.21 674.75 C 1101.21 673.6 1101.09 672.57 1101.09 671.41 C 1101.09 671.03 1101.47 671.03 1101.6 671.28 C 1101.86 671.54 1102.11 672.05 1102.11 672.44 C 1102.24 673.08 1102.24 673.85 1102.24 674.49 C 1102.24 674.49 1102.37 674.49 1102.37 674.49 Z" stroke="none" fill="none"/>
</g>
<g id="layout-shape-65" data-name="Freeform 20">
<path d="M 1106.46 668.48 C 1106.08 669.13 1105.57 669.64 1105.06 670.16 C 1104.8 670.55 1104.04 670.42 1103.66 670.03 C 1103.41 669.64 1103.15 669.26 1103.02 668.87 C 1103.41 668.74 1103.79 668.61 1104.17 668.61 C 1104.93 668.48 1105.7 668.48 1106.46 668.35 C 1106.46 668.48 1106.46 668.48 1106.46 668.48 Z" stroke="none" fill="none"/>
</g>
</g>
<g id="layout-shape-45" data-name="组合 44">
<g id="layout-shape-46" data-name="Freeform 11">
<path d="M 1148.39 672.5 C 1147.16 672.87 1147.04 672.87 1146.67 671.77 C 1146.42 670.92 1146.17 669.94 1146.05 669.09 C 1145.93 668.84 1146.17 668.48 1146.42 668.36 C 1146.79 668.11 1147.04 668.48 1147.16 668.72 C 1147.16 669.09 1147.28 669.33 1147.28 669.7 C 1148.02 669.58 1148.64 669.45 1149.13 669.21 C 1149.38 669.09 1149.5 668.72 1149.75 668.48 C 1149.87 668.36 1150 668.23 1150.12 668.23 C 1150.24 668.36 1150.24 668.6 1150.24 668.84 C 1150.24 669.21 1150.12 669.58 1150.12 669.94 C 1149.38 670.06 1149.63 670.92 1149.26 671.4 C 1149.26 671.53 1149.38 671.53 1149.38 671.65 C 1149.63 671.53 1150 671.4 1150.24 671.16 C 1150.74 670.43 1151.23 669.7 1151.72 668.97 C 1152.09 668.36 1151.72 667.63 1150.86 667.63 C 1150 667.5 1149.01 667.75 1148.27 668.23 C 1147.9 668.48 1147.53 668.36 1147.28 668.11 C 1146.91 667.63 1146.91 667.38 1147.53 667.26 C 1148.64 666.89 1149.75 666.53 1150.98 666.65 C 1151.97 666.65 1152.59 667.38 1153.2 667.99 C 1153.7 668.36 1153.45 668.97 1153.08 669.45 C 1152.34 670.43 1151.6 671.4 1150.86 672.38 C 1150.61 672.74 1150.37 672.87 1150 672.5 C 1149.87 672.38 1149.5 672.26 1149.38 672.26 C 1149.26 672.38 1149.13 672.62 1149.13 672.87 C 1149.01 673.72 1149.01 673.72 1149.87 673.6 C 1150.12 673.48 1150.49 673.35 1150.74 673.48 C 1150.98 673.48 1151.35 673.6 1151.35 673.72 C 1151.48 673.96 1151.48 674.33 1151.35 674.57 C 1151.23 674.82 1150.98 674.94 1150.74 675.06 C 1150.24 675.43 1149.63 675.67 1149.38 676.4 C 1149.75 676.4 1150.12 676.4 1150.37 676.4 C 1151.11 676.4 1151.72 676.77 1151.85 677.38 C 1151.97 677.86 1151.6 678.35 1151.11 678.47 C 1150.12 678.6 1149.13 678.72 1148.02 678.84 C 1147.53 678.96 1147.16 678.72 1146.91 678.23 C 1146.79 678.23 1146.79 678.11 1146.67 677.99 C 1146.17 676.77 1146.17 676.77 1147.16 675.91 C 1147.53 675.67 1147.78 675.3 1148.15 675.06 C 1148.15 675.06 1148.15 674.94 1148.15 674.94 C 1147.9 674.94 1147.65 675.06 1147.41 675.18 C 1146.91 675.3 1146.42 675.55 1145.93 675.79 C 1145.68 675.79 1145.43 675.79 1145.19 675.67 C 1144.82 675.3 1144.82 675.18 1145.31 674.94 C 1146.3 674.57 1147.16 674.21 1148.02 673.84 C 1148.15 673.84 1148.27 673.6 1148.27 673.48 C 1148.39 673.23 1148.39 672.87 1148.39 672.5 Z M 1149.01 670.06 C 1149.01 670.06 1149.01 670.06 1148.89 669.94 C 1148.64 670.06 1148.27 670.18 1148.02 670.43 C 1147.78 670.43 1147.53 670.67 1147.65 670.92 C 1147.65 671.16 1147.9 671.4 1148.02 671.65 C 1148.15 671.65 1148.52 671.53 1148.64 671.4 C 1148.76 671.04 1148.89 670.55 1149.01 670.06 Z" stroke="none" fill="none"/>
</g>
<g id="layout-shape-47" data-name="Freeform 12">
<path d="M 1144.68 672.58 C 1144.92 672.21 1145.17 671.85 1145.41 671.36 C 1145.54 672.09 1145.78 672.7 1145.54 673.44 C 1145.05 674.66 1144.56 676 1144.07 677.22 C 1143.82 677.83 1143.82 678.45 1143.58 679.18 C 1143.21 679.06 1142.84 679.06 1142.59 678.93 C 1141.86 678.69 1141.37 678.08 1141.61 677.35 C 1141.86 676.49 1142.1 675.63 1142.35 674.78 C 1142.59 674.05 1142.72 673.19 1142.1 672.46 C 1141.86 671.97 1142.1 671.85 1142.47 671.85 C 1143.09 671.97 1143.09 671.72 1143.21 671.24 C 1143.33 670.38 1143.58 669.65 1143.82 668.67 C 1143.33 668.79 1142.84 669.04 1142.35 669.16 C 1141.98 669.28 1141.61 669.16 1141.25 669.16 C 1141.12 669.04 1141 668.79 1141 668.67 C 1141.12 668.55 1141.25 668.42 1141.37 668.42 C 1141.86 668.18 1142.47 668.18 1142.96 668.06 C 1143.33 667.81 1143.7 667.57 1144.19 667.45 C 1144.43 667.32 1144.92 667.2 1144.92 667.32 C 1145.17 667.57 1145.29 667.94 1145.29 668.3 C 1145.41 668.3 1145.29 668.42 1145.17 668.55 C 1144.31 669.52 1144.43 670.75 1144.31 671.85 C 1144.31 672.09 1144.43 672.34 1144.43 672.58 C 1144.56 672.58 1144.56 672.58 1144.68 672.58 Z" stroke="none" fill="none"/>
</g>
</g>
</g>
</g></svg>