<svg xmlns="http://www.w3.org/2000/svg" xmlns:xlink="http://www.w3.org/1999/xlink" version="1.1" width="1280" height="720" viewBox="0 0 1280 720"><g id="layout-shape-12" data-name="标题 11" data-ph-type="title">
<rect x="60.67" y="26.15" width="907.49" height="50.41" fill="#F8FAFC" fill-opacity="0.18" stroke="#94A3B8" stroke-dasharray="6 4" stroke-width="1"/><text x="68.67" y="44.15" font-size="12" fill="#64748B">ph title</text>
</g>
<g id="layout-shape-6" data-name="文本框 5">
<rect x="1179.33" y="667" width="57.83" height="35.67" fill="none" stroke="none"/>
</g>
<g id="layout-shape-57" data-name="图片 56">
<image href="../assets/image8.png" x="1027.84" y="26.47" width="206.74" height="45.46" preserveAspectRatio="none"/>
</g>
<g id="layout-shape-2" data-name="组合 1">
<g id="layout-shape-85" data-name="任意多边形: 形状 56">
<path d="M -1 12.85 L 57.79 12.85 L 32.8 86.27 L -1 86.27 Z" fill="#006C39" stroke="none" stroke-width="1"/>
</g>
<g id="layout-shape-86" data-name="任意多边形: 形状 57">
<path d="M 51.74 39.81 L 53.96 39.81 L 46.03 63.11 L 43.81 63.11 Z" fill="#A13F0B" stroke-width="4" stroke="#A13F0B"/>
</g>
</g>
<g id="layout-shape-87" data-name="直接连接符 86">
<line x1="46.5" y1="86.27" x2="1233.5" y2="86.27" stroke="#BFBFBF" fill="#006C39" stroke-width="1"/>
</g>
<g id="layout-shape-88" data-name="矩形 87">
<rect x="1275.2" y="35.33" width="4.8" height="27.92" fill="#A13F0B" stroke="none" stroke-width="1"/>
</g>
<g id="layout-shape-90" data-name="直接连接符 89">
<line x1="46.5" y1="657.67" x2="1233.5" y2="657.67" stroke="#BFBFBF" fill="#006C39" stroke-width="1"/>
</g>
<g id="layout-shape-83" data-name="组合 82">
<g id="layout-shape-84" data-name="组合 83">
<g id="layout-shape-104" data-name="Freeform 5">
<path d="M 278.05 678.83 C 279.43 678.04 280.62 677.26 280.62 675.49 C 280.62 674.91 281.01 674.12 281.21 673.53 C 281.41 673.34 282 672.95 282.2 672.95 C 283.19 673.14 284.18 674.12 284.18 675.3 C 284.18 675.89 284.37 676.08 284.77 676.28 C 285.36 676.67 285.95 677.26 286.15 677.85 C 286.55 678.63 285.95 679.02 285.16 678.83 C 284.77 678.63 284.37 678.44 283.78 678.24 C 282.99 677.85 282.6 678.04 282.4 679.02 C 282 681.18 281.61 683.34 282.79 685.3 C 283.19 684.91 283.58 684.51 283.98 683.73 C 284.57 684.51 284.97 685.1 285.36 685.89 C 285.95 685.3 286.74 684.51 287.34 683.93 C 287.53 683.73 287.34 683.34 287.34 683.14 C 287.14 682.75 286.55 682.36 286.55 682.16 C 286.74 681.57 287.34 681.38 287.93 681.57 C 288.13 681.57 288.32 681.57 288.52 681.57 C 288.52 680.98 288.72 680.2 288.92 679.22 C 287.53 679.81 286.55 680.2 285.36 680.59 C 284.57 680.98 284.37 680.98 283.78 680.2 C 284.18 680 284.57 679.81 284.97 679.61 C 286.15 679.22 287.34 678.83 288.52 678.24 C 288.92 678.24 289.11 677.85 289.31 677.65 C 289.71 676.48 289.9 675.1 290.3 673.93 C 290.3 673.53 290.69 672.95 290.89 672.75 C 291.09 672.36 291.48 672.36 291.88 672.36 C 291.88 672.55 292.08 673.14 292.08 673.34 C 290.89 674.71 291.09 676.28 290.69 677.85 C 291.88 678.44 293.26 677.26 294.45 678.24 C 294.05 678.83 293.66 679.42 292.87 679.22 C 292.87 679.02 292.67 679.02 292.67 679.02 C 290.69 679.02 289.9 680 290.3 681.96 C 290.5 682.55 290.89 683.14 291.29 683.93 C 292.08 683.93 293.06 683.73 294.05 683.53 C 295.04 683.34 296.03 683.73 296.82 684.32 C 297.21 684.71 297.21 685.3 296.62 685.49 C 295.83 685.89 295.04 686.28 294.25 686.28 C 292.87 686.08 292.08 687.06 291.29 687.85 C 291.88 688.04 292.67 688.04 293.06 688.43 C 293.46 688.63 293.85 689.22 294.05 689.61 C 294.25 692.75 294.45 695.69 294.64 698.63 C 294.64 699.22 294.25 699.81 294.25 700.2 C 293.66 700 293.06 700 292.67 699.81 C 291.68 699.02 290.89 698.04 290.3 697.26 C 290.1 697.06 290.1 696.67 290.1 696.47 C 290.69 696.87 291.48 697.26 292.27 697.85 C 292.27 697.65 292.47 697.65 292.47 697.45 C 292.47 696.08 292.47 694.51 292.47 692.94 C 292.47 692.16 292.47 691.18 292.47 690.4 C 292.08 689.02 291.48 688.83 290.3 690 C 290.69 690.59 291.68 690.59 291.68 691.77 C 291.09 691.57 290.5 691.38 289.9 691.18 C 289.11 691.96 289.11 692.16 290.3 692.55 C 291.29 693.14 291.88 694.12 291.48 694.32 C 290.69 694.91 290.1 694.32 289.51 693.92 C 289.31 693.92 289.11 693.73 288.92 693.53 C 288.72 694.32 288.72 695.1 288.52 695.89 C 287.14 695.49 286.74 694.71 286.94 693.53 C 287.53 690.98 288.52 688.63 289.9 686.28 C 289.11 686.87 288.32 687.26 287.53 687.65 C 286.55 688.24 285.36 688.83 284.37 689.42 C 284.37 689.42 284.37 689.42 284.18 689.42 C 283.78 689.61 283.19 689.61 282.99 689.81 C 282.6 690.59 282.2 691.38 282.2 692.16 C 282.2 693.92 282.4 695.69 282.6 697.45 C 282.6 698.04 282.6 698.63 282.6 699.22 C 282 699.02 281.41 699.02 281.01 698.63 C 280.42 698.24 279.83 697.85 280.03 696.87 C 280.42 695.69 280.22 694.51 280.22 693.34 C 280.03 693.34 280.03 693.34 279.83 693.14 C 279.63 693.73 279.24 694.12 279.04 694.71 C 278.45 695.89 277.46 696.28 276.67 695.89 C 275.68 695.49 275.48 694.51 275.88 693.53 C 276.47 691.77 277.06 690.2 277.66 688.24 C 276.27 690 274.89 689.02 273.51 688.24 C 272.52 687.85 272.52 687.26 273.51 686.67 C 275.48 685.69 277.46 684.51 279.24 683.34 C 279.43 683.14 279.83 682.95 279.83 682.55 C 280.03 681.38 280.03 680 280.03 678.83 C 280.03 678.63 280.03 678.63 279.83 678.63 C 278.84 680.2 277.85 681.77 276.87 683.14 C 276.87 683.34 276.87 683.34 277.06 683.53 C 276.47 683.34 275.88 683.34 275.29 683.14 C 274.3 682.75 273.9 681.96 274.3 680.98 C 274.5 680.59 274.5 680 274.69 679.42 C 275.09 677.85 276.08 676.87 277.66 676.28 C 277.85 676.08 278.45 676.28 278.84 676.67 C 279.24 676.87 278.84 677.26 278.64 677.65 C 278.25 677.85 278.25 678.44 278.05 678.83 Z" stroke="none" fill="none"/>
</g>
<g id="layout-shape-105" data-name="Freeform 6">
<path d="M 314.28 692.48 C 315.07 692.09 315.66 691.89 316.45 691.89 C 317.44 691.69 318.43 691.5 319.41 691.5 C 320.8 691.69 321.98 694.24 321.39 695.62 C 321.19 695.81 320.99 696.01 320.8 696.01 C 319.61 696.21 318.43 696.01 317.44 696.4 C 316.06 696.99 314.68 697.58 313.29 698.37 C 312.5 698.76 311.91 698.95 310.93 698.37 C 309.15 697.19 308.36 695.23 307.96 693.26 C 307.77 692.87 307.96 692.48 308.16 692.09 C 309.54 689.34 310.93 686.39 312.31 683.65 C 312.31 683.45 312.31 683.06 312.11 682.66 C 311.52 682.08 310.73 681.49 310.14 680.7 C 309.74 680.11 309.94 679.72 310.73 679.52 C 311.91 679.33 312.9 678.94 314.08 678.54 C 316.45 677.56 319.02 678.74 319.61 681.09 C 319.81 681.68 319.61 682.27 319.41 682.66 C 319.02 683.25 318.43 684.04 318.03 684.63 C 316.85 686.98 315.66 689.34 314.48 691.69 C 314.48 691.69 314.48 692.09 314.28 692.48 Z" stroke="none" fill="none"/>
</g>
<g id="layout-shape-106" data-name="组合 105">
<g id="layout-shape-111" data-name="Freeform 7">
<path d="M 231.43 681.74 C 230.04 680.56 227.48 680.56 226.1 681.34 C 225.9 681.54 225.31 681.74 224.91 681.54 C 223.73 681.34 222.74 681.54 221.55 681.93 C 220.57 682.32 219.58 682.72 218.59 683.11 C 217.8 683.5 217.21 683.89 217.01 684.68 C 216.22 686.44 215.43 688.4 214.64 690.36 C 214.64 690.56 214.25 690.95 214.05 690.76 C 213.26 690.56 212.47 689.97 211.68 689.58 C 211.48 689.38 211.48 688.99 211.48 688.6 C 212.47 686.44 213.46 684.29 214.44 682.13 C 214.44 681.93 214.64 681.93 214.64 681.74 C 215.04 681.34 215.23 680.56 215.43 680.56 C 216.22 680.56 217.21 680.56 217.8 680.95 C 218.39 681.15 218.59 681.34 219.18 681.15 C 222.74 680.17 224.52 677.62 225.7 674.48 C 225.7 674.29 225.9 673.89 226.1 673.5 C 226.1 673.11 226.1 672.91 226.1 672.52 C 226.1 672.52 225.7 672.32 225.5 672.52 C 225.31 672.72 224.91 672.91 224.91 673.31 C 224.71 673.7 224.91 674.09 224.91 674.48 C 225.11 675.85 224.91 676.25 223.13 676.05 C 222.74 676.05 222.34 675.85 221.95 675.66 C 221.55 675.46 221.16 675.27 220.76 675.07 C 220.76 675.66 220.76 676.05 220.76 676.64 C 220.76 676.83 220.76 676.83 220.76 677.03 C 220.76 677.81 220.96 678.8 219.97 679.19 C 219.18 679.38 218.2 678.99 217.6 678.01 C 217.01 677.03 216.42 676.05 217.21 674.87 C 217.6 674.29 217.6 673.7 218 673.11 C 218.2 672.72 218.39 672.13 218.59 672.13 C 218.99 672.32 219.38 672.52 219.78 672.91 C 219.78 672.91 219.97 673.31 220.17 673.5 C 220.96 672.91 221.75 672.52 222.74 673.11 C 222.94 673.31 223.53 672.91 223.73 672.52 C 225.11 671.34 226.29 670.36 228.07 670.36 C 229.06 670.36 229.85 670.76 230.44 671.74 C 231.03 672.52 230.83 673.31 230.44 674.29 C 229.45 675.66 228.66 677.23 227.87 678.8 C 228.86 678.8 229.45 678.99 230.04 678.99 C 232.22 679.38 234.19 680.17 235.57 681.93 C 236.76 683.11 236.56 683.7 235.18 684.68 C 233.8 685.46 232.22 685.46 230.83 684.68 C 230.24 684.29 230.24 683.89 230.64 683.31 C 230.83 682.91 231.23 682.32 231.43 681.74 Z" stroke="none" fill="none"/>
</g>
<g id="layout-shape-112" data-name="Freeform 8">
<path d="M 225.89 688.58 C 227.27 688.78 228.45 688.97 229.63 688.58 C 230.81 688.19 232.58 689.56 232.39 690.93 C 232.39 691.13 231.79 691.33 231.4 691.33 C 230.61 691.33 229.63 691.33 228.64 691.33 C 227.27 691.13 227.07 691.52 227.07 692.7 C 226.87 695.05 226.87 697.6 226.48 699.96 C 226.28 701.53 225.69 701.72 224.12 701.53 C 221.75 700.94 219.78 698.98 220.97 696.23 C 220.97 695.84 220.97 695.45 221.16 695.05 C 221.56 695.64 222.15 696.43 222.74 697.01 C 223.33 697.8 224.51 697.6 224.71 696.62 C 224.9 695.05 225.1 693.48 225.3 691.92 C 223.72 691.72 222.74 692.5 221.56 693.09 C 221.16 693.09 220.97 693.48 220.57 693.48 C 219.59 694.27 219 694.07 218.01 693.48 C 217.42 692.9 216.83 691.52 217.22 690.74 C 217.22 690.54 217.81 690.15 218.01 690.15 C 219.59 690.54 220.77 689.76 222.34 689.37 C 222.54 689.37 222.93 689.17 223.33 689.17 C 222.93 688.19 222.93 687.6 223.92 687.21 C 224.51 686.62 225.1 685.83 225.89 685.25 C 225.69 685.05 225.69 685.05 225.69 684.85 C 224.31 685.44 223.13 685.83 221.95 686.23 C 221.16 686.62 220.37 687.21 219.78 687.6 C 219 687.99 218.21 688.19 217.81 687.21 C 217.62 686.82 217.42 686.62 217.03 686.23 C 219.39 685.25 221.75 684.07 223.92 683.28 C 225.1 682.89 226.48 682.89 227.66 682.89 C 228.05 682.89 228.64 683.68 228.84 684.07 C 229.04 684.46 228.84 685.05 228.45 685.44 C 227.66 686.42 226.87 687.4 225.89 688.58 Z" stroke="none" fill="none"/>
</g>
</g>
<g id="layout-shape-107" data-name="组合 106">
<g id="layout-shape-108" data-name="Freeform 15">
<path d="M 249.57 688.26 C 250.11 686.69 250.84 685.32 251.56 683.95 C 251.74 683.56 251.92 683.17 252.28 682.78 C 252.46 683.17 252.65 683.36 252.83 683.75 C 253.37 684.93 253.73 686.3 253.01 687.67 C 252.1 689.24 251.2 691 250.29 692.76 C 249.93 693.54 248.85 693.94 248.3 693.74 C 247.04 693.15 246.68 692.37 246.86 691 C 247.04 688.65 247.22 686.1 247.4 683.75 C 247.4 683.36 247.4 682.58 248.12 682.58 C 248.67 682.58 249.39 682.78 249.39 683.75 C 249.39 684.54 249.21 685.52 249.21 686.5 C 249.21 687.08 249.21 687.47 249.21 688.06 C 249.21 688.06 249.39 688.06 249.57 688.26 Z" stroke="none" fill="none"/>
</g>
<g id="layout-shape-109" data-name="Freeform 16">
<path d="M 255.75 692.6 C 255.42 692.24 255.09 691.87 254.76 691.51 C 254.44 690.96 254.27 690.42 254.76 689.69 C 255.75 688.6 256.57 687.51 257.55 686.23 C 258.2 685.14 258.86 684.05 259.68 682.96 C 260.17 682.05 260.17 680.96 259.68 680.05 C 259.51 679.87 259.51 679.69 259.51 679.5 C 259.51 679.5 259.68 679.32 259.68 679.32 C 260.17 679.69 260.66 680.05 260.98 680.41 C 261.8 681.32 261.97 682.96 261.31 684.05 C 260.66 685.32 259.84 686.6 259.02 688.05 C 259.02 688.23 259.02 688.78 259.18 688.78 C 260.49 689.69 260.49 691.14 260.82 692.6 C 260.98 693.15 260.98 693.87 260.98 694.6 C 260.98 695.15 260.66 695.33 260.33 694.96 C 259.68 694.42 259.35 694.06 259.35 692.96 C 259.35 692.05 259.18 691.14 258.86 690.24 C 258.69 689.33 258.37 689.51 257.87 690.05 C 257.22 690.96 256.57 691.69 255.75 692.6 Z" stroke="none" fill="none"/>
</g>
<g id="layout-shape-110" data-name="Freeform 17">
<path d="M 250.68 678.94 C 252.24 679.09 253.4 679.09 254.57 679.09 C 255.35 679.09 255.74 680.18 255.16 680.8 C 254.77 681.42 253.99 681.88 253.02 681.73 C 252.24 681.73 251.65 681.26 251.26 680.64 C 251.07 680.18 250.87 679.56 250.68 678.94 Z" stroke="none" fill="none"/>
</g>
</g>
</g>
<g id="layout-shape-89" data-name="组合 88">
<g id="layout-shape-91" data-name="组合 90">
<g id="layout-shape-102" data-name="Freeform 9">
<path d="M 130.73 692.25 C 129.15 693.42 127.77 694.4 126.39 695.38 C 125.79 695.97 125.2 695.77 124.61 695.38 C 123.82 694.6 123.03 693.81 123.03 692.44 C 124.21 693.03 125.4 692.64 126.39 691.27 C 125.99 691.07 125.6 690.68 125 690.29 C 124.41 689.9 124.41 689.31 124.61 688.72 C 125.2 686.37 125.99 684.02 126.58 681.47 C 126.78 680.89 126.98 680.1 128.16 680.3 C 129.35 680.5 130.14 681.08 130.14 682.06 C 130.14 682.06 130.14 682.26 130.14 682.26 C 129.94 683.43 130.53 684.22 131.52 684.8 C 131.52 683.04 131.32 681.28 131.32 679.32 C 128.95 680.1 126.98 679.32 127.18 677.95 C 128.76 677.56 130.14 677.17 131.72 677.17 C 133.69 676.97 134.68 678.54 134.28 680.3 C 134.09 682.26 134.09 684.41 134.09 686.37 C 134.09 686.76 134.28 687.15 134.28 687.74 C 134.28 688.33 134.09 688.92 133.89 689.51 C 133.89 689.9 133.69 690.29 133.69 690.88 C 133.49 692.44 133.49 694.01 133.3 695.58 C 133.3 695.97 133.1 696.56 132.7 696.75 C 132.31 696.75 131.72 696.56 131.52 696.16 C 130.73 695.58 130.14 694.99 130.53 693.81 C 130.73 693.42 130.73 692.83 130.73 692.25 Z M 131.32 686.18 C 130.73 685.98 130.14 685.78 129.35 685.59 C 129.15 686.96 128.95 688.13 128.76 689.51 C 130.73 688.92 131.32 688.13 131.32 686.18 Z" stroke="none" fill="none"/>
</g>
<g id="layout-shape-103" data-name="Freeform 10">
<path d="M 136.64 692.65 C 136.44 693.44 136.44 694.03 136.44 694.81 C 136.24 695.2 136.24 695.59 135.65 695.59 C 135.05 695.59 134.46 695.4 134.66 694.61 C 134.86 693.63 134.86 692.65 135.05 691.67 C 135.85 688.54 136.44 685.6 137.24 682.46 C 137.63 680.9 138.23 679.13 138.83 677.37 C 139.62 677.76 139.82 678.15 139.62 678.94 C 139.22 680.11 138.83 681.48 138.43 683.05 C 139.02 682.46 139.42 682.27 139.82 682.07 C 140.41 681.68 141.21 681.48 141.41 681.09 C 141.6 679.72 141.8 678.35 141.01 676.98 C 141.01 676.78 140.41 676.58 140.02 676.78 C 139.42 676.98 138.83 677.37 138.23 677.56 C 137.83 677.76 137.44 678.15 136.84 678.15 C 136.64 678.15 136.24 677.76 136.24 677.37 C 136.05 677.37 136.44 676.98 136.64 676.78 C 137.83 676 139.02 675.21 140.61 675.21 C 142.6 675.41 143.59 676.19 143.39 678.15 C 143.39 680.11 143.39 682.27 143.19 684.23 C 143.19 685.01 143.39 685.4 143.99 685.79 C 145.38 686.97 145.38 688.15 143.99 689.13 C 143.39 689.32 143.19 689.71 143.19 690.3 C 143.39 692.46 143.19 694.61 143.19 696.77 C 143.19 697.16 143.39 697.36 143.19 697.55 C 142.99 697.95 142.79 698.73 142.6 698.73 C 142 698.73 141.21 698.73 140.81 698.34 C 139.42 696.57 138.23 694.81 137.04 693.05 C 136.84 692.85 136.84 692.85 136.84 692.65 C 136.64 692.65 136.64 692.65 136.64 692.65 Z M 139.22 690.11 C 139.02 689.91 139.02 689.91 139.02 689.71 C 139.22 689.52 139.62 689.32 139.82 689.13 C 140.21 688.93 140.61 688.73 141.01 688.34 C 141.41 688.15 141.41 687.56 140.81 687.56 C 139.82 687.17 139.22 686.58 138.83 685.4 C 137.83 687.95 137.04 690.3 138.03 692.65 C 138.63 694.22 139.82 695.01 141.01 696.18 C 141.21 694.22 141.21 692.26 141.41 690.3 C 141.41 690.3 140.81 689.91 140.61 689.91 C 140.21 689.91 139.62 690.11 139.22 690.11 Z" stroke="none" fill="none"/>
</g>
</g>
<g id="layout-shape-92" data-name="组合 91">
<g id="layout-shape-100" data-name="Freeform 13">
<path d="M 71.16 684.34 C 71.56 684.54 71.96 684.74 72.35 684.93 C 72.95 684.54 73.54 684.15 74.13 683.75 C 73.14 682.38 74.53 681.59 74.73 680.41 C 74.13 680.41 73.34 680.41 72.75 680.22 C 72.35 680.02 71.76 679.63 71.36 679.23 C 71.36 679.04 71.56 679.04 71.56 679.04 C 72.55 678.84 73.34 678.84 74.33 678.65 C 75.12 678.65 75.52 678.25 75.72 677.47 C 76.51 675.3 77.3 673.14 78.1 671.18 C 78.29 670.59 78.29 670 79.09 670.39 C 79.88 670.79 80.27 671.77 79.68 672.16 C 78.1 673.73 78.1 675.89 77.5 678.06 C 78.49 677.66 79.68 677.27 80.67 677.07 C 81.07 676.88 81.66 676.88 81.86 677.07 C 82.25 677.27 82.65 677.66 82.65 678.06 C 82.65 678.25 82.45 678.65 82.06 678.65 C 80.67 679.04 79.28 679.43 77.9 679.82 C 77.11 679.82 76.91 680.02 76.71 680.61 C 76.31 681.4 76.11 681.99 75.72 682.77 C 77.9 682.38 79.88 682.18 81.86 682.97 C 82.65 683.16 83.44 683.56 83.44 684.54 C 83.64 685.52 83.24 686.31 82.25 686.7 C 82.06 686.7 81.86 686.9 81.66 687.09 C 82.06 687.29 82.45 687.29 82.65 687.49 C 83.44 687.88 83.84 688.47 83.64 689.26 C 83.44 690.04 82.85 690.24 82.25 690.24 C 81.46 690.24 80.67 690.43 79.88 690.43 C 78.69 690.63 77.7 691.81 77.9 692.99 C 78.1 692.99 78.49 692.99 78.69 692.79 C 80.47 691.81 82.25 691.42 84.23 691.42 C 85.03 691.61 85.62 691.81 86.22 692.01 C 87.01 692.4 87.01 692.99 86.61 693.58 C 86.41 694.17 85.82 694.17 85.42 693.97 C 83.64 693.19 82.25 693.58 80.87 694.17 C 81.66 695.54 82.65 696.92 83.64 698.29 C 83.84 698.69 83.84 699.47 83.64 699.87 C 83.64 700.06 82.85 700.06 82.45 700.06 C 79.68 699.47 76.91 698.69 74.73 697.11 C 73.94 696.53 73.34 695.94 72.55 695.35 C 72.35 695.15 72.15 694.95 72.15 694.76 C 72.15 694.36 72.15 693.97 72.15 693.77 C 72.55 693.77 72.95 693.77 73.14 693.77 C 73.34 693.97 73.54 694.17 73.74 694.56 C 75.52 696.33 77.5 697.31 79.88 697.51 C 80.08 697.51 80.08 697.51 80.27 697.51 C 79.88 696.72 79.48 695.94 79.09 695.15 C 79.09 695.15 78.69 694.95 78.49 694.95 C 75.72 694.76 75.52 694.36 75.72 691.81 C 75.72 691.61 75.72 691.42 75.72 691.22 C 75.12 691.42 74.53 691.42 73.94 691.61 C 73.34 691.81 72.55 692.01 71.96 692.2 C 71.16 692.4 70.37 692.6 69.78 691.81 C 68.99 691.02 68.99 690.04 69.18 689.06 C 69.18 688.86 69.58 688.86 69.98 688.86 C 70.57 688.86 71.16 688.86 71.76 689.06 C 71.16 687.68 70.77 686.5 70.17 685.33 C 69.58 686.31 68.99 687.29 68.39 688.27 C 68.19 688.47 68.19 688.86 68.39 689.26 C 68.39 689.65 68.59 690.24 68.59 690.63 C 67.99 693.77 67.4 696.72 67 699.67 C 66.81 699.87 66.81 700.06 66.81 700.26 C 65.02 700.06 64.43 699.28 64.63 697.7 C 65.02 696.33 65.22 694.76 65.62 693.19 C 64.63 694.17 64.03 693.97 63.04 693.19 C 62.25 692.4 61.66 691.42 61.66 690.24 C 61.66 690.04 61.86 689.84 61.86 689.65 C 63.04 687.88 64.43 686.11 65.42 684.15 C 66.01 683.16 66.41 681.99 66.81 680.81 C 67 680.61 66.61 680.41 66.61 680.02 C 65.22 678.45 65.22 677.66 66.21 675.89 C 67 674.52 67.99 673.34 69.38 672.75 C 70.57 672.16 71.56 672.36 72.15 673.14 C 72.75 673.93 72.75 674.32 71.76 674.72 C 70.37 675.11 69.78 676.09 68.99 677.07 C 68.79 677.66 68.79 678.25 69.38 678.65 C 69.78 678.84 69.98 679.23 70.17 679.43 C 71.96 681.4 72.35 682.18 71.16 684.34 Z M 77.3 687.49 C 77.5 687.49 77.5 687.68 77.7 687.68 C 78.49 686.9 79.48 685.92 80.47 684.93 C 80.87 684.34 80.47 683.95 79.88 683.95 C 79.09 683.95 78.49 683.95 77.7 683.95 C 77.7 684.74 77.7 685.13 77.7 685.72 C 77.7 686.31 77.5 686.9 77.3 687.49 Z M 76.71 684.34 C 76.11 684.54 75.72 684.74 75.32 685.13 C 75.12 685.13 74.93 685.33 74.93 685.52 C 74.93 686.5 75.12 687.29 75.12 688.08 C 76.31 687.88 76.91 686.31 76.71 684.34 Z M 74.13 685.92 C 72.55 686.5 72.35 686.7 72.75 687.29 C 73.14 688.47 73.54 688.67 74.53 688.27 C 74.33 687.49 74.13 686.7 74.13 685.92 Z" stroke="none" fill="none"/>
</g>
<g id="layout-shape-101" data-name="Freeform 14">
<path d="M 70.39 693.59 C 71.57 694.18 71.77 694.77 71.57 695.75 C 70.98 697.71 70.78 699.86 70.39 702.02 C 69.8 701.63 69.41 701.43 69.01 701.23 C 68.81 701.04 68.62 700.84 68.62 700.45 C 69.21 698.29 69.8 695.94 70.39 693.59 Z" stroke="none" fill="none"/>
</g>
</g>
<g id="layout-shape-93" data-name="组合 92">
<g id="layout-shape-97" data-name="Freeform 18">
<path d="M 111.4 693.61 C 110.21 693.8 109.82 693.22 109.62 692.24 C 109.22 691.07 108.63 689.7 108.23 688.53 C 108.04 687.94 107.64 687.75 107.05 688.14 C 106.06 689.12 104.87 689.9 103.88 690.87 C 103.29 691.46 103.09 691.26 102.69 690.87 C 101.7 689.7 101.7 689.12 102.89 688.14 C 104.28 686.77 105.66 685.6 107.05 684.23 C 108.04 683.25 108.83 682.08 109.62 681.11 C 109.62 680.91 109.82 680.52 109.82 680.32 C 109.62 679.74 110.02 679.15 110.61 679.15 C 111.2 679.15 111.8 679.35 112.19 679.74 C 112.98 680.32 112.98 682.28 112.19 683.06 C 111.2 684.23 110.02 685.4 109.03 686.58 C 110.41 688.72 111.4 691.07 111.4 693.61 Z" stroke="none" fill="none"/>
</g>
<g id="layout-shape-98" data-name="Freeform 19">
<path d="M 98.35 688.73 C 98.94 687.35 99.34 685.77 99.93 684.19 C 100.13 683.8 100.13 682.81 100.91 683.01 C 101.7 683.21 101.31 684 101.11 684.59 C 100.52 686.56 99.73 688.53 99.14 690.5 C 98.94 691.29 98.75 692.28 98.55 693.07 C 98.35 693.66 97.96 693.66 97.37 693.46 C 96.18 692.67 95.99 692.48 96.38 690.9 C 96.58 690.31 96.58 689.72 96.58 689.12 C 96.58 687.35 96.38 685.77 96.38 684 C 96.38 683.41 96.97 683.41 97.17 683.8 C 97.56 684.19 97.96 684.98 97.96 685.57 C 98.15 686.56 98.15 687.74 98.15 688.73 C 98.15 688.73 98.35 688.73 98.35 688.73 Z" stroke="none" fill="none"/>
</g>
<g id="layout-shape-99" data-name="Freeform 20">
<path d="M 104.63 679.5 C 104.05 680.49 103.26 681.28 102.48 682.07 C 102.09 682.67 100.92 682.47 100.33 681.88 C 99.94 681.28 99.55 680.69 99.36 680.09 C 99.94 679.89 100.53 679.69 101.12 679.69 C 102.29 679.5 103.46 679.5 104.63 679.3 C 104.63 679.5 104.63 679.5 104.63 679.5 Z" stroke="none" fill="none"/>
</g>
</g>
<g id="layout-shape-94" data-name="组合 93">
<g id="layout-shape-95" data-name="Freeform 11">
<path d="M 169.03 685.67 C 167.14 686.23 166.95 686.23 166.38 684.55 C 166 683.24 165.62 681.74 165.43 680.43 C 165.25 680.05 165.62 679.49 166 679.3 C 166.57 678.93 166.95 679.49 167.14 679.87 C 167.14 680.43 167.33 680.8 167.33 681.36 C 168.47 681.18 169.41 680.99 170.17 680.61 C 170.55 680.43 170.74 679.87 171.12 679.49 C 171.31 679.3 171.5 679.12 171.69 679.12 C 171.87 679.3 171.87 679.68 171.87 680.05 C 171.87 680.61 171.69 681.18 171.69 681.74 C 170.55 681.92 170.93 683.24 170.36 683.98 C 170.36 684.17 170.55 684.17 170.55 684.36 C 170.93 684.17 171.5 683.98 171.87 683.61 C 172.63 682.49 173.39 681.36 174.15 680.24 C 174.72 679.3 174.15 678.18 172.82 678.18 C 171.5 677.99 169.98 678.37 168.84 679.12 C 168.28 679.49 167.71 679.3 167.33 678.93 C 166.76 678.18 166.76 677.81 167.71 677.62 C 169.41 677.06 171.12 676.5 173.01 676.68 C 174.53 676.68 175.47 677.81 176.42 678.74 C 177.18 679.3 176.8 680.24 176.23 680.99 C 175.1 682.49 173.96 683.98 172.82 685.48 C 172.44 686.04 172.06 686.23 171.5 685.67 C 171.31 685.48 170.74 685.29 170.55 685.29 C 170.36 685.48 170.17 685.86 170.17 686.23 C 169.98 687.54 169.98 687.54 171.31 687.35 C 171.69 687.17 172.25 686.98 172.63 687.17 C 173.01 687.17 173.58 687.35 173.58 687.54 C 173.77 687.92 173.77 688.48 173.58 688.85 C 173.39 689.23 173.01 689.41 172.63 689.6 C 171.87 690.16 170.93 690.54 170.55 691.66 C 171.12 691.66 171.69 691.66 172.06 691.66 C 173.2 691.66 174.15 692.22 174.34 693.16 C 174.53 693.91 173.96 694.65 173.2 694.84 C 171.69 695.03 170.17 695.22 168.47 695.4 C 167.71 695.59 167.14 695.22 166.76 694.47 C 166.57 694.47 166.57 694.28 166.38 694.09 C 165.62 692.22 165.62 692.22 167.14 690.91 C 167.71 690.54 168.09 689.97 168.65 689.6 C 168.65 689.6 168.65 689.41 168.65 689.41 C 168.28 689.41 167.9 689.6 167.52 689.79 C 166.76 689.97 166 690.35 165.25 690.72 C 164.87 690.72 164.49 690.72 164.11 690.54 C 163.54 689.97 163.54 689.79 164.3 689.41 C 165.81 688.85 167.14 688.29 168.47 687.73 C 168.65 687.73 168.84 687.35 168.84 687.17 C 169.03 686.79 169.03 686.23 169.03 685.67 Z M 169.98 681.92 C 169.98 681.92 169.98 681.92 169.79 681.74 C 169.41 681.92 168.84 682.11 168.47 682.49 C 168.09 682.49 167.71 682.86 167.9 683.24 C 167.9 683.61 168.28 683.98 168.47 684.36 C 168.65 684.36 169.22 684.17 169.41 683.98 C 169.6 683.42 169.79 682.67 169.98 681.92 Z" stroke="none" fill="none"/>
</g>
<g id="layout-shape-96" data-name="Freeform 12">
<path d="M 163.33 685.79 C 163.71 685.23 164.08 684.66 164.46 683.91 C 164.65 685.04 165.02 685.98 164.65 687.1 C 163.9 688.98 163.14 691.05 162.39 692.92 C 162.01 693.86 162.01 694.8 161.64 695.93 C 161.07 695.74 160.51 695.74 160.13 695.55 C 159 695.17 158.25 694.24 158.62 693.11 C 159 691.8 159.38 690.48 159.75 689.17 C 160.13 688.04 160.32 686.73 159.38 685.6 C 159 684.85 159.38 684.66 159.94 684.66 C 160.88 684.85 160.88 684.48 161.07 683.72 C 161.26 682.41 161.64 681.28 162.01 679.78 C 161.26 679.97 160.51 680.35 159.75 680.53 C 159.19 680.72 158.62 680.53 158.06 680.53 C 157.87 680.35 157.68 679.97 157.68 679.78 C 157.87 679.6 158.06 679.41 158.25 679.41 C 159 679.03 159.94 679.03 160.69 678.84 C 161.26 678.47 161.82 678.09 162.58 677.91 C 162.95 677.72 163.71 677.53 163.71 677.72 C 164.08 678.09 164.27 678.66 164.27 679.22 C 164.46 679.22 164.27 679.41 164.08 679.6 C 162.77 681.1 162.95 682.97 162.77 684.66 C 162.77 685.04 162.95 685.41 162.95 685.79 C 163.14 685.79 163.14 685.79 163.33 685.79 Z" stroke="none" fill="none"/>
</g>
</g>
</g>
</g></svg>