<svg xmlns="http://www.w3.org/2000/svg" xmlns:xlink="http://www.w3.org/1999/xlink" version="1.1" width="1280" height="720" viewBox="0 0 1280 720"><defs><linearGradient id="ggrad1" x1="0" y1="0.5" x2="1" y2="0.5"><stop offset="0" stop-color="#008244"/><stop offset="1" stop-color="#006C39"/></linearGradient><pattern id="gpatt2" patternUnits="userSpaceOnUse" width="8" height="8" data-pptx-pattern="pct5" data-pptx-fg="#D9D9D9" data-pptx-bg="#FFFFFF"><rect width="8" height="8" fill="#FFFFFF"/><circle cx="4.0" cy="4.0" r="1.009" fill="#D9D9D9"/></pattern><filter id="fx1" x="-25%" y="-25%" width="150%" height="150%"><feDropShadow dx="0" dy="0" stdDeviation="10" flood-color="#000000" flood-opacity="0.11"/></filter><filter id="fx2" x="-25%" y="-25%" width="150%" height="150%"><feDropShadow dx="0" dy="0" stdDeviation="4" flood-color="#000000" flood-opacity="0.07"/></filter></defs><g id="layout-shape-6" data-name="PA-矩形 7">
<rect x="0" y="0" width="1280" height="720" fill="#006C39" stroke="none" stroke-width="1"/>
</g>
<g id="layout-shape-7" data-name="PA-矩形 7">
<rect x="0" y="0" width="1280" height="720" fill="url(#ggrad1)" stroke="none" stroke-width="1"/>
</g>
<g id="layout-shape-8" data-name="任意多边形: 形状 39">
<path d="M 23.3 0 L 690.15 0 L 698.6 10.75 C 771.44 108.14 814.57 229.03 814.57 360 C 814.57 490.97 771.44 611.86 698.6 709.25 L 690.15 720 L 23.3 720 Z" fill="url(#gpatt2)" stroke="none" stroke-width="1" filter="url(#fx1)"/>
</g>
<g id="layout-shape-9" data-name="任意多边形: 形状 39">
<path d="M 19.91 0 L 686.77 0 L 695.22 10.75 C 768.05 108.14 811.18 229.03 811.18 360 C 811.18 490.97 768.05 611.86 695.22 709.25 L 686.77 720 L 19.91 720 Z" fill="#A13F0B" stroke="none" stroke-width="1"/>
</g>
<g id="layout-shape-10" data-name="任意多边形: 形状 39">
<path d="M 0 0 L 666.86 0 L 675.31 10.75 C 748.14 108.14 791.27 229.03 791.27 360 C 791.27 490.97 748.14 611.86 675.31 709.25 L 666.86 720 L 0 720 Z" fill="#FFFFFF" stroke="none" stroke-width="1" filter="url(#fx2)"/>
</g>
<g id="layout-shape-11" data-name="任意多边形: 形状 74" transform="translate(409.98 412.2) scale(1 -1) translate(-409.98 -412.2)">
<path d="M 750.63 422.35 L 123.63 422.35 L 94 402.06 C 94.09 408.9 93.67 415.5 93.75 422.35 L 69.33 422.35" fill="none" stroke-width="3" stroke="#006C39"/>
</g>
<g id="layout-shape-12" data-name="标题 47" data-ph-type="title">
<rect x="70.48" y="274.72" width="736.48" height="126.02" fill="#F8FAFC" fill-opacity="0.18" stroke="#94A3B8" stroke-dasharray="6 4" stroke-width="1"/><text x="78.48" y="292.72" font-size="12" fill="#64748B">ph title</text>
</g>
<g id="layout-shape-13" data-name="文本占位符 87" data-ph-type="body">
<rect x="70.48" y="246.94" width="539.41" height="27.14" fill="#F8FAFC" fill-opacity="0.18" stroke="#94A3B8" stroke-dasharray="6 4" stroke-width="1"/><text x="78.48" y="264.94" font-size="12" fill="#64748B">ph body idx=13</text>
</g>
<g id="layout-shape-14" data-name="文本占位符 53" data-ph-type="body">
<rect x="70.48" y="429.86" width="653.14" height="39.1" fill="#F8FAFC" fill-opacity="0.18" stroke="#94A3B8" stroke-dasharray="6 4" stroke-width="1"/><text x="78.48" y="447.86" font-size="12" fill="#64748B">ph body idx=16</text>
</g>
<g id="layout-shape-16" data-name="文本框 15">
<rect x="49.81" y="33.41" width="199.38" height="83.24" fill="none" stroke="none"/>
<text x="68.71" y="79.51" text-anchor="start" xml:space="preserve" font-family="&quot;微软雅黑&quot;, +mn-cs, sans-serif" font-size="32" fill="#A2A2A2" font-weight="bold" letter-spacing="1.33"><tspan fill="#A2A2A2" font-size="32" font-weight="bold" letter-spacing="1.33">◀ BIT ▶</tspan></text>
</g>
<g id="layout-shape-23" data-name="图片 22">
<image href="../assets/image4.png" x="866.24" y="-81.32" width="827.87" height="796.68" preserveAspectRatio="none"/>
</g>
<g id="layout-shape-20" data-name="图片 19">
<image href="../assets/image5.png" x="866.23" y="230.64" width="340.49" height="258.72" preserveAspectRatio="none"/>
</g>
<g id="layout-shape-2" data-name="组合 1">
<g id="layout-shape-74" data-name="组合 73">
<g id="layout-shape-89" data-name="Freeform 5">
<path d="M 286.88 645.19 C 288.26 644.4 289.45 643.62 289.45 641.85 C 289.45 641.26 289.84 640.48 290.04 639.89 C 290.24 639.7 290.83 639.3 291.03 639.3 C 292.01 639.5 293 640.48 293 641.66 C 293 642.25 293.2 642.44 293.6 642.64 C 294.19 643.03 294.78 643.62 294.98 644.21 C 295.37 644.99 294.78 645.38 293.99 645.19 C 293.6 644.99 293.2 644.79 292.61 644.6 C 291.82 644.21 291.42 644.4 291.22 645.38 C 290.83 647.54 290.43 649.7 291.62 651.66 C 292.01 651.26 292.41 650.87 292.81 650.09 C 293.4 650.87 293.79 651.46 294.19 652.24 C 294.78 651.66 295.57 650.87 296.16 650.28 C 296.36 650.09 296.16 649.7 296.16 649.5 C 295.97 649.11 295.37 648.72 295.37 648.52 C 295.57 647.93 296.16 647.73 296.76 647.93 C 296.95 647.93 297.15 647.93 297.35 647.93 C 297.35 647.34 297.55 646.56 297.74 645.58 C 296.36 646.17 295.37 646.56 294.19 646.95 C 293.4 647.34 293.2 647.34 292.61 646.56 C 293 646.36 293.4 646.17 293.79 645.97 C 294.98 645.58 296.16 645.19 297.35 644.6 C 297.74 644.6 297.94 644.21 298.14 644.01 C 298.53 642.83 298.73 641.46 299.13 640.28 C 299.13 639.89 299.52 639.3 299.72 639.11 C 299.92 638.72 300.31 638.72 300.71 638.72 C 300.71 638.91 300.9 639.5 300.9 639.7 C 299.72 641.07 299.92 642.64 299.52 644.21 C 300.71 644.79 302.09 643.62 303.27 644.6 C 302.88 645.19 302.48 645.77 301.69 645.58 C 301.69 645.38 301.5 645.38 301.5 645.38 C 299.52 645.38 298.73 646.36 299.13 648.32 C 299.32 648.91 299.72 649.5 300.11 650.28 C 300.9 650.28 301.89 650.09 302.88 649.89 C 303.87 649.7 304.85 650.09 305.64 650.68 C 306.04 651.07 306.04 651.66 305.45 651.85 C 304.66 652.24 303.87 652.64 303.08 652.64 C 301.69 652.44 300.9 653.42 300.11 654.21 C 300.71 654.4 301.5 654.4 301.89 654.79 C 302.29 654.99 302.68 655.58 302.88 655.97 C 303.08 659.11 303.27 662.05 303.47 664.99 C 303.47 665.58 303.08 666.16 303.08 666.56 C 302.48 666.36 301.89 666.36 301.5 666.16 C 300.51 665.38 299.72 664.4 299.13 663.62 C 298.93 663.42 298.93 663.03 298.93 662.83 C 299.52 663.22 300.31 663.62 301.1 664.2 C 301.1 664.01 301.3 664.01 301.3 663.81 C 301.3 662.44 301.3 660.87 301.3 659.3 C 301.3 658.52 301.3 657.54 301.3 656.75 C 300.9 655.38 300.31 655.19 299.13 656.36 C 299.52 656.95 300.51 656.95 300.51 658.13 C 299.92 657.93 299.32 657.73 298.73 657.54 C 297.94 658.32 297.94 658.52 299.13 658.91 C 300.11 659.5 300.71 660.48 300.31 660.68 C 299.52 661.26 298.93 660.68 298.34 660.28 C 298.14 660.28 297.94 660.09 297.74 659.89 C 297.55 660.68 297.55 661.46 297.35 662.24 C 295.97 661.85 295.57 661.07 295.77 659.89 C 296.36 657.34 297.35 654.99 298.73 652.64 C 297.94 653.22 297.15 653.62 296.36 654.01 C 295.37 654.6 294.19 655.19 293.2 655.77 C 293.2 655.77 293.2 655.77 293 655.77 C 292.61 655.97 292.01 655.97 291.82 656.17 C 291.42 656.95 291.03 657.73 291.03 658.52 C 291.03 660.28 291.22 662.05 291.42 663.81 C 291.42 664.4 291.42 664.99 291.42 665.58 C 290.83 665.38 290.24 665.38 289.84 664.99 C 289.25 664.6 288.66 664.2 288.85 663.22 C 289.25 662.05 289.05 660.87 289.05 659.69 C 288.85 659.69 288.85 659.69 288.66 659.5 C 288.46 660.09 288.06 660.48 287.87 661.07 C 287.27 662.24 286.29 662.64 285.5 662.24 C 284.51 661.85 284.31 660.87 284.71 659.89 C 285.3 658.13 285.89 656.56 286.48 654.6 C 285.1 656.36 283.72 655.38 282.34 654.6 C 281.35 654.21 281.35 653.62 282.34 653.03 C 284.31 652.05 286.29 650.87 288.06 649.7 C 288.26 649.5 288.66 649.3 288.66 648.91 C 288.85 647.73 288.85 646.36 288.85 645.19 C 288.85 644.99 288.85 644.99 288.66 644.99 C 287.67 646.56 286.68 648.13 285.69 649.5 C 285.69 649.7 285.69 649.7 285.89 649.89 C 285.3 649.7 284.71 649.7 284.11 649.5 C 283.13 649.11 282.73 648.32 283.13 647.34 C 283.32 646.95 283.32 646.36 283.52 645.77 C 283.92 644.21 284.9 643.23 286.48 642.64 C 286.68 642.44 287.27 642.64 287.67 643.03 C 288.06 643.23 287.67 643.62 287.47 644.01 C 287.08 644.21 287.08 644.79 286.88 645.19 Z" fill="#A2A2A2" stroke="none"/>
</g>
<g id="layout-shape-90" data-name="Freeform 6">
<path d="M 323.11 658.84 C 323.9 658.44 324.49 658.25 325.28 658.25 C 326.27 658.05 327.25 657.85 328.24 657.85 C 329.62 658.05 330.81 660.6 330.22 661.98 C 330.02 662.17 329.82 662.37 329.62 662.37 C 328.44 662.57 327.25 662.37 326.27 662.76 C 324.89 663.35 323.5 663.94 322.12 664.72 C 321.33 665.12 320.74 665.31 319.75 664.72 C 317.98 663.55 317.19 661.58 316.79 659.62 C 316.59 659.23 316.79 658.84 316.99 658.44 C 318.37 655.7 319.75 652.75 321.13 650 C 321.13 649.81 321.13 649.42 320.94 649.02 C 320.34 648.43 319.56 647.84 318.96 647.06 C 318.57 646.47 318.77 646.08 319.56 645.88 C 320.74 645.69 321.73 645.29 322.91 644.9 C 325.28 643.92 327.85 645.1 328.44 647.45 C 328.64 648.04 328.44 648.63 328.24 649.02 C 327.85 649.61 327.25 650.4 326.86 650.99 C 325.67 653.34 324.49 655.7 323.31 658.05 C 323.31 658.05 323.31 658.44 323.11 658.84 Z" fill="#A2A2A2" stroke="none"/>
</g>
<g id="layout-shape-91" data-name="组合 90">
<g id="layout-shape-96" data-name="Freeform 7">
<path d="M 240.25 648.09 C 238.87 646.92 236.3 646.92 234.92 647.7 C 234.72 647.9 234.13 648.09 233.74 647.9 C 232.55 647.7 231.57 647.9 230.38 648.29 C 229.39 648.68 228.41 649.08 227.42 649.47 C 226.63 649.86 226.04 650.25 225.84 651.04 C 225.05 652.8 224.26 654.76 223.47 656.72 C 223.47 656.92 223.07 657.31 222.88 657.11 C 222.09 656.92 221.3 656.33 220.51 655.94 C 220.31 655.74 220.31 655.35 220.31 654.96 C 221.3 652.8 222.28 650.64 223.27 648.49 C 223.27 648.29 223.47 648.29 223.47 648.09 C 223.86 647.7 224.06 646.92 224.26 646.92 C 225.05 646.92 226.04 646.92 226.63 647.31 C 227.22 647.51 227.42 647.7 228.01 647.51 C 231.57 646.53 233.34 643.98 234.53 640.84 C 234.53 640.64 234.72 640.25 234.92 639.86 C 234.92 639.47 234.92 639.27 234.92 638.88 C 234.92 638.88 234.53 638.68 234.33 638.88 C 234.13 639.08 233.74 639.27 233.74 639.66 C 233.54 640.06 233.74 640.45 233.74 640.84 C 233.93 642.21 233.74 642.6 231.96 642.41 C 231.57 642.41 231.17 642.21 230.78 642.02 C 230.38 641.82 229.99 641.62 229.59 641.43 C 229.59 642.02 229.59 642.41 229.59 643 C 229.59 643.19 229.59 643.19 229.59 643.39 C 229.59 644.17 229.79 645.15 228.8 645.55 C 228.01 645.74 227.02 645.35 226.43 644.37 C 225.84 643.39 225.25 642.41 226.04 641.23 C 226.43 640.64 226.43 640.06 226.83 639.47 C 227.02 639.08 227.22 638.49 227.42 638.49 C 227.81 638.68 228.21 638.88 228.6 639.27 C 228.6 639.27 228.8 639.66 229 639.86 C 229.79 639.27 230.58 638.88 231.57 639.47 C 231.76 639.66 232.36 639.27 232.55 638.88 C 233.93 637.7 235.12 636.72 236.9 636.72 C 237.88 636.72 238.67 637.11 239.27 638.09 C 239.86 638.88 239.66 639.66 239.27 640.64 C 238.28 642.02 237.49 643.58 236.7 645.15 C 237.69 645.15 238.28 645.35 238.87 645.35 C 241.04 645.74 243.02 646.53 244.4 648.29 C 245.59 649.47 245.39 650.06 244.01 651.04 C 242.62 651.82 241.04 651.82 239.66 651.04 C 239.07 650.64 239.07 650.25 239.46 649.66 C 239.66 649.27 240.06 648.68 240.25 648.09 Z" stroke="none" fill="none"/>
</g>
<g id="layout-shape-97" data-name="Freeform 8">
<path d="M 234.72 654.94 C 236.09 655.14 237.27 655.33 238.46 654.94 C 239.64 654.55 241.41 655.92 241.21 657.29 C 241.21 657.49 240.62 657.68 240.23 657.68 C 239.44 657.68 238.46 657.68 237.47 657.68 C 236.09 657.49 235.9 657.88 235.9 659.06 C 235.7 661.41 235.7 663.96 235.31 666.31 C 235.11 667.88 234.52 668.08 232.94 667.88 C 230.58 667.3 228.61 665.33 229.79 662.59 C 229.79 662.2 229.79 661.8 229.99 661.41 C 230.38 662 230.97 662.78 231.56 663.37 C 232.16 664.16 233.34 663.96 233.53 662.98 C 233.73 661.41 233.93 659.84 234.12 658.27 C 232.55 658.08 231.56 658.86 230.38 659.45 C 229.99 659.45 229.79 659.84 229.4 659.84 C 228.41 660.63 227.82 660.43 226.84 659.84 C 226.25 659.25 225.66 657.88 226.05 657.1 C 226.05 656.9 226.64 656.51 226.84 656.51 C 228.41 656.9 229.6 656.12 231.17 655.72 C 231.37 655.72 231.76 655.53 232.16 655.53 C 231.76 654.55 231.76 653.96 232.75 653.57 C 233.34 652.98 233.93 652.19 234.72 651.6 C 234.52 651.41 234.52 651.41 234.52 651.21 C 233.14 651.8 231.96 652.19 230.78 652.59 C 229.99 652.98 229.2 653.57 228.61 653.96 C 227.82 654.35 227.04 654.55 226.64 653.57 C 226.45 653.17 226.25 652.98 225.85 652.59 C 228.22 651.6 230.58 650.43 232.75 649.64 C 233.93 649.25 235.31 649.25 236.49 649.25 C 236.88 649.25 237.47 650.04 237.67 650.43 C 237.87 650.82 237.67 651.41 237.27 651.8 C 236.49 652.78 235.7 653.76 234.72 654.94 Z" stroke="none" fill="none"/>
</g>
</g>
<g id="layout-shape-92" data-name="组合 91">
<g id="layout-shape-93" data-name="Freeform 15">
<path d="M 258.4 654.62 C 258.94 653.05 259.66 651.68 260.39 650.31 C 260.57 649.92 260.75 649.53 261.11 649.13 C 261.29 649.53 261.47 649.72 261.65 650.11 C 262.2 651.29 262.56 652.66 261.83 654.03 C 260.93 655.6 260.03 657.36 259.12 659.12 C 258.76 659.9 257.67 660.29 257.13 660.1 C 255.86 659.51 255.5 658.73 255.68 657.36 C 255.86 655.01 256.05 652.46 256.23 650.11 C 256.23 649.72 256.23 648.94 256.95 648.94 C 257.49 648.94 258.22 649.13 258.22 650.11 C 258.22 650.9 258.04 651.88 258.04 652.85 C 258.04 653.44 258.04 653.83 258.04 654.42 C 258.04 654.42 258.22 654.42 258.4 654.62 Z" stroke="none" fill="none"/>
</g>
<g id="layout-shape-94" data-name="Freeform 16">
<path d="M 264.57 658.96 C 264.25 658.59 263.92 658.23 263.59 657.87 C 263.26 657.32 263.1 656.78 263.59 656.05 C 264.57 654.96 265.39 653.87 266.37 652.59 C 267.03 651.5 267.68 650.41 268.5 649.32 C 268.99 648.41 268.99 647.32 268.5 646.41 C 268.34 646.23 268.34 646.04 268.34 645.86 C 268.34 645.86 268.5 645.68 268.5 645.68 C 268.99 646.04 269.48 646.41 269.81 646.77 C 270.63 647.68 270.79 649.32 270.14 650.41 C 269.48 651.68 268.67 652.96 267.85 654.41 C 267.85 654.59 267.85 655.14 268.01 655.14 C 269.32 656.05 269.32 657.5 269.65 658.96 C 269.81 659.5 269.81 660.23 269.81 660.96 C 269.81 661.5 269.48 661.69 269.16 661.32 C 268.5 660.78 268.18 660.41 268.18 659.32 C 268.18 658.41 268.01 657.5 267.68 656.59 C 267.52 655.68 267.19 655.87 266.7 656.41 C 266.05 657.32 265.39 658.05 264.57 658.96 Z" stroke="none" fill="none"/>
</g>
<g id="layout-shape-95" data-name="Freeform 17">
<path d="M 259.5 645.3 C 261.06 645.45 262.23 645.45 263.4 645.45 C 264.18 645.45 264.57 646.54 263.99 647.16 C 263.6 647.78 262.82 648.24 261.84 648.09 C 261.06 648.09 260.48 647.62 260.09 647 C 259.89 646.54 259.7 645.92 259.5 645.3 Z" stroke="none" fill="none"/>
</g>
</g>
</g>
<g id="layout-shape-75" data-name="组合 74">
<g id="layout-shape-76" data-name="组合 75">
<g id="layout-shape-87" data-name="Freeform 9">
<path d="M 139.56 658.61 C 137.98 659.78 136.6 660.76 135.21 661.74 C 134.62 662.33 134.03 662.13 133.44 661.74 C 132.65 660.96 131.86 660.17 131.86 658.8 C 133.04 659.39 134.23 659 135.21 657.63 C 134.82 657.43 134.42 657.04 133.83 656.65 C 133.24 656.25 133.24 655.67 133.44 655.08 C 134.03 652.73 134.82 650.38 135.41 647.83 C 135.61 647.25 135.81 646.46 136.99 646.66 C 138.17 646.85 138.96 647.44 138.96 648.42 C 138.96 648.42 138.96 648.62 138.96 648.62 C 138.77 649.79 139.36 650.58 140.35 651.16 C 140.35 649.4 140.15 647.64 140.15 645.68 C 137.78 646.46 135.81 645.68 136 644.31 C 137.58 643.92 138.96 643.52 140.54 643.52 C 142.52 643.33 143.51 644.9 143.11 646.66 C 142.91 648.62 142.91 650.77 142.91 652.73 C 142.91 653.12 143.11 653.51 143.11 654.1 C 143.11 654.69 142.91 655.28 142.72 655.86 C 142.72 656.25 142.52 656.65 142.52 657.23 C 142.32 658.8 142.32 660.37 142.12 661.93 C 142.12 662.33 141.93 662.91 141.53 663.11 C 141.14 663.11 140.54 662.91 140.35 662.52 C 139.56 661.93 138.96 661.35 139.36 660.17 C 139.56 659.78 139.56 659.19 139.56 658.61 Z M 140.15 652.53 C 139.56 652.34 138.96 652.14 138.17 651.95 C 137.98 653.32 137.78 654.49 137.58 655.86 C 139.56 655.28 140.15 654.49 140.15 652.53 Z" stroke="none" fill="none"/>
</g>
<g id="layout-shape-88" data-name="Freeform 10">
<path d="M 145.47 659.01 C 145.27 659.8 145.27 660.38 145.27 661.17 C 145.07 661.56 145.07 661.95 144.48 661.95 C 143.88 661.95 143.29 661.76 143.48 660.97 C 143.68 659.99 143.68 659.01 143.88 658.03 C 144.68 654.9 145.27 651.96 146.06 648.82 C 146.46 647.25 147.06 645.49 147.65 643.73 C 148.45 644.12 148.64 644.51 148.45 645.29 C 148.05 646.47 147.65 647.84 147.26 649.41 C 147.85 648.82 148.25 648.63 148.64 648.43 C 149.24 648.04 150.03 647.84 150.23 647.45 C 150.43 646.08 150.63 644.71 149.84 643.33 C 149.84 643.14 149.24 642.94 148.84 643.14 C 148.25 643.33 147.65 643.73 147.06 643.92 C 146.66 644.12 146.26 644.51 145.67 644.51 C 145.47 644.51 145.07 644.12 145.07 643.73 C 144.87 643.73 145.27 643.33 145.47 643.14 C 146.66 642.35 147.85 641.57 149.44 641.57 C 151.42 641.77 152.42 642.55 152.22 644.51 C 152.22 646.47 152.22 648.63 152.02 650.59 C 152.02 651.37 152.22 651.76 152.81 652.15 C 154.2 653.33 154.2 654.5 152.81 655.48 C 152.22 655.68 152.02 656.07 152.02 656.66 C 152.22 658.82 152.02 660.97 152.02 663.13 C 152.02 663.52 152.22 663.72 152.02 663.91 C 151.82 664.3 151.62 665.09 151.42 665.09 C 150.83 665.09 150.03 665.09 149.64 664.7 C 148.25 662.93 147.06 661.17 145.87 659.4 C 145.67 659.21 145.67 659.21 145.67 659.01 C 145.47 659.01 145.47 659.01 145.47 659.01 Z M 148.05 656.46 C 147.85 656.27 147.85 656.27 147.85 656.07 C 148.05 655.88 148.45 655.68 148.64 655.48 C 149.04 655.29 149.44 655.09 149.84 654.7 C 150.23 654.5 150.23 653.92 149.64 653.92 C 148.64 653.53 148.05 652.94 147.65 651.76 C 146.66 654.31 145.87 656.66 146.86 659.01 C 147.45 660.58 148.64 661.36 149.84 662.54 C 150.03 660.58 150.03 658.62 150.23 656.66 C 150.23 656.66 149.64 656.27 149.44 656.27 C 149.04 656.27 148.45 656.46 148.05 656.46 Z" stroke="none" fill="none"/>
</g>
</g>
<g id="layout-shape-77" data-name="组合 76">
<g id="layout-shape-85" data-name="Freeform 13">
<path d="M 79.99 650.7 C 80.39 650.9 80.78 651.09 81.18 651.29 C 81.77 650.9 82.37 650.5 82.96 650.11 C 81.97 648.74 83.36 647.95 83.56 646.77 C 82.96 646.77 82.17 646.77 81.58 646.58 C 81.18 646.38 80.59 645.99 80.19 645.59 C 80.19 645.4 80.39 645.4 80.39 645.4 C 81.38 645.2 82.17 645.2 83.16 645 C 83.95 645 84.35 644.61 84.55 643.82 C 85.34 641.66 86.13 639.5 86.92 637.54 C 87.12 636.95 87.12 636.36 87.91 636.75 C 88.71 637.14 89.1 638.13 88.51 638.52 C 86.92 640.09 86.92 642.25 86.33 644.41 C 87.32 644.02 88.51 643.63 89.5 643.43 C 89.89 643.23 90.49 643.23 90.69 643.43 C 91.08 643.63 91.48 644.02 91.48 644.41 C 91.48 644.61 91.28 645 90.88 645 C 89.5 645.4 88.11 645.79 86.72 646.18 C 85.93 646.18 85.73 646.38 85.54 646.97 C 85.14 647.75 84.94 648.34 84.55 649.13 C 86.72 648.74 88.71 648.54 90.69 649.33 C 91.48 649.52 92.27 649.92 92.27 650.9 C 92.47 651.88 92.07 652.67 91.08 653.06 C 90.88 653.06 90.69 653.26 90.49 653.45 C 90.88 653.65 91.28 653.65 91.48 653.85 C 92.27 654.24 92.67 654.83 92.47 655.61 C 92.27 656.4 91.68 656.6 91.08 656.6 C 90.29 656.6 89.5 656.79 88.71 656.79 C 87.52 656.99 86.53 658.17 86.72 659.35 C 86.92 659.35 87.32 659.35 87.52 659.15 C 89.3 658.17 91.08 657.77 93.06 657.77 C 93.85 657.97 94.45 658.17 95.04 658.36 C 95.83 658.76 95.83 659.35 95.44 659.94 C 95.24 660.53 94.65 660.53 94.25 660.33 C 92.47 659.54 91.08 659.94 89.7 660.53 C 90.49 661.9 91.48 663.28 92.47 664.65 C 92.67 665.04 92.67 665.83 92.47 666.22 C 92.47 666.42 91.68 666.42 91.28 666.42 C 88.51 665.83 85.73 665.04 83.56 663.47 C 82.76 662.88 82.17 662.29 81.38 661.7 C 81.18 661.51 80.98 661.31 80.98 661.12 C 80.98 660.72 80.98 660.33 80.98 660.13 C 81.38 660.13 81.77 660.13 81.97 660.13 C 82.17 660.33 82.37 660.53 82.57 660.92 C 84.35 662.69 86.33 663.67 88.71 663.87 C 88.9 663.87 88.9 663.87 89.1 663.87 C 88.71 663.08 88.31 662.29 87.91 661.51 C 87.91 661.51 87.52 661.31 87.32 661.31 C 84.55 661.12 84.35 660.72 84.55 658.17 C 84.55 657.97 84.55 657.77 84.55 657.58 C 83.95 657.77 83.36 657.77 82.76 657.97 C 82.17 658.17 81.38 658.36 80.78 658.56 C 79.99 658.76 79.2 658.95 78.6 658.17 C 77.81 657.38 77.81 656.4 78.01 655.42 C 78.01 655.22 78.41 655.22 78.8 655.22 C 79.4 655.22 79.99 655.22 80.59 655.42 C 79.99 654.04 79.59 652.86 79 651.68 C 78.41 652.67 77.81 653.65 77.22 654.63 C 77.02 654.83 77.02 655.22 77.22 655.61 C 77.22 656.01 77.42 656.6 77.42 656.99 C 76.82 660.13 76.23 663.08 75.83 666.03 C 75.63 666.22 75.63 666.42 75.63 666.62 C 73.85 666.42 73.26 665.63 73.46 664.06 C 73.85 662.69 74.05 661.12 74.45 659.54 C 73.46 660.53 72.86 660.33 71.87 659.54 C 71.08 658.76 70.48 657.77 70.48 656.6 C 70.48 656.4 70.68 656.2 70.68 656.01 C 71.87 654.24 73.26 652.47 74.25 650.5 C 74.84 649.52 75.24 648.34 75.63 647.16 C 75.83 646.97 75.44 646.77 75.44 646.38 C 74.05 644.81 74.05 644.02 75.04 642.25 C 75.83 640.88 76.82 639.7 78.21 639.11 C 79.4 638.52 80.39 638.72 80.98 639.5 C 81.58 640.29 81.58 640.68 80.59 641.07 C 79.2 641.47 78.6 642.45 77.81 643.43 C 77.61 644.02 77.61 644.61 78.21 645 C 78.6 645.2 78.8 645.59 79 645.79 C 80.78 647.75 81.18 648.54 79.99 650.7 Z M 86.13 653.85 C 86.33 653.85 86.33 654.04 86.53 654.04 C 87.32 653.26 88.31 652.27 89.3 651.29 C 89.7 650.7 89.3 650.31 88.71 650.31 C 87.91 650.31 87.32 650.31 86.53 650.31 C 86.53 651.09 86.53 651.49 86.53 652.08 C 86.53 652.67 86.33 653.26 86.13 653.85 Z M 85.54 650.7 C 84.94 650.9 84.55 651.09 84.15 651.49 C 83.95 651.49 83.75 651.68 83.75 651.88 C 83.75 652.86 83.95 653.65 83.95 654.43 C 85.14 654.24 85.73 652.67 85.54 650.7 Z M 82.96 652.27 C 81.38 652.86 81.18 653.06 81.58 653.65 C 81.97 654.83 82.37 655.02 83.36 654.63 C 83.16 653.85 82.96 653.06 82.96 652.27 Z" stroke="none" fill="none"/>
</g>
<g id="layout-shape-86" data-name="Freeform 14">
<path d="M 79.22 659.95 C 80.4 660.54 80.6 661.13 80.4 662.1 C 79.81 664.06 79.61 666.22 79.22 668.38 C 78.63 667.98 78.23 667.79 77.84 667.59 C 77.64 667.4 77.45 667.2 77.45 666.81 C 78.04 664.65 78.63 662.3 79.22 659.95 Z" stroke="none" fill="none"/>
</g>
</g>
<g id="layout-shape-78" data-name="组合 77">
<g id="layout-shape-82" data-name="Freeform 18">
<path d="M 120.23 659.97 C 119.04 660.16 118.64 659.58 118.45 658.6 C 118.05 657.43 117.46 656.06 117.06 654.89 C 116.86 654.3 116.47 654.11 115.87 654.5 C 114.88 655.47 113.7 656.26 112.71 657.23 C 112.11 657.82 111.91 657.62 111.52 657.23 C 110.53 656.06 110.53 655.47 111.72 654.5 C 113.1 653.13 114.49 651.96 115.87 650.59 C 116.86 649.61 117.66 648.44 118.45 647.46 C 118.45 647.27 118.64 646.88 118.64 646.68 C 118.45 646.1 118.84 645.51 119.44 645.51 C 120.03 645.51 120.62 645.7 121.02 646.1 C 121.81 646.68 121.81 648.64 121.02 649.42 C 120.03 650.59 118.84 651.76 117.85 652.93 C 119.24 655.08 120.23 657.43 120.23 659.97 Z" stroke="none" fill="none"/>
</g>
<g id="layout-shape-83" data-name="Freeform 19">
<path d="M 107.18 655.09 C 107.77 653.71 108.16 652.13 108.76 650.55 C 108.95 650.16 108.95 649.17 109.74 649.37 C 110.53 649.57 110.14 650.36 109.94 650.95 C 109.35 652.92 108.56 654.89 107.97 656.86 C 107.77 657.65 107.57 658.64 107.38 659.42 C 107.18 660.02 106.79 660.02 106.19 659.82 C 105.01 659.03 104.81 658.83 105.21 657.26 C 105.41 656.66 105.41 656.07 105.41 655.48 C 105.41 653.71 105.21 652.13 105.21 650.36 C 105.21 649.76 105.8 649.76 106 650.16 C 106.39 650.55 106.79 651.34 106.79 651.93 C 106.98 652.92 106.98 654.1 106.98 655.09 C 106.98 655.09 107.18 655.09 107.18 655.09 Z" stroke="none" fill="none"/>
</g>
<g id="layout-shape-84" data-name="Freeform 20">
<path d="M 113.46 645.85 C 112.87 646.85 112.09 647.64 111.31 648.43 C 110.92 649.03 109.75 648.83 109.16 648.23 C 108.77 647.64 108.38 647.04 108.18 646.45 C 108.77 646.25 109.36 646.05 109.94 646.05 C 111.12 645.85 112.29 645.85 113.46 645.66 C 113.46 645.85 113.46 645.85 113.46 645.85 Z" stroke="none" fill="none"/>
</g>
</g>
<g id="layout-shape-79" data-name="组合 78">
<g id="layout-shape-80" data-name="Freeform 11">
<path d="M 177.86 652.03 C 175.97 652.59 175.78 652.59 175.21 650.9 C 174.83 649.59 174.45 648.1 174.26 646.79 C 174.07 646.41 174.45 645.85 174.83 645.66 C 175.4 645.29 175.78 645.85 175.97 646.22 C 175.97 646.79 176.16 647.16 176.16 647.72 C 177.29 647.53 178.24 647.35 179 646.97 C 179.38 646.79 179.57 646.22 179.94 645.85 C 180.13 645.66 180.32 645.48 180.51 645.48 C 180.7 645.66 180.7 646.04 180.7 646.41 C 180.7 646.97 180.51 647.53 180.51 648.1 C 179.38 648.28 179.76 649.59 179.19 650.34 C 179.19 650.53 179.38 650.53 179.38 650.72 C 179.76 650.53 180.32 650.34 180.7 649.97 C 181.46 648.84 182.22 647.72 182.98 646.6 C 183.54 645.66 182.98 644.54 181.65 644.54 C 180.32 644.35 178.81 644.73 177.67 645.48 C 177.1 645.85 176.53 645.66 176.16 645.29 C 175.59 644.54 175.59 644.16 176.53 643.98 C 178.24 643.42 179.94 642.85 181.84 643.04 C 183.35 643.04 184.3 644.16 185.25 645.1 C 186.01 645.66 185.63 646.6 185.06 647.35 C 183.92 648.84 182.79 650.34 181.65 651.84 C 181.27 652.4 180.89 652.59 180.32 652.03 C 180.13 651.84 179.57 651.65 179.38 651.65 C 179.19 651.84 179 652.21 179 652.59 C 178.81 653.9 178.81 653.9 180.13 653.71 C 180.51 653.52 181.08 653.34 181.46 653.52 C 181.84 653.52 182.41 653.71 182.41 653.9 C 182.6 654.27 182.6 654.83 182.41 655.21 C 182.22 655.58 181.84 655.77 181.46 655.96 C 180.7 656.52 179.76 656.89 179.38 658.02 C 179.94 658.02 180.51 658.02 180.89 658.02 C 182.03 658.02 182.98 658.58 183.16 659.51 C 183.35 660.26 182.79 661.01 182.03 661.2 C 180.51 661.39 179 661.57 177.29 661.76 C 176.53 661.95 175.97 661.57 175.59 660.83 C 175.4 660.83 175.4 660.64 175.21 660.45 C 174.45 658.58 174.45 658.58 175.97 657.27 C 176.53 656.89 176.91 656.33 177.48 655.96 C 177.48 655.96 177.48 655.77 177.48 655.77 C 177.1 655.77 176.72 655.96 176.35 656.15 C 175.59 656.33 174.83 656.71 174.07 657.08 C 173.69 657.08 173.31 657.08 172.94 656.89 C 172.37 656.33 172.37 656.15 173.13 655.77 C 174.64 655.21 175.97 654.65 177.29 654.09 C 177.48 654.09 177.67 653.71 177.67 653.52 C 177.86 653.15 177.86 652.59 177.86 652.03 Z M 178.81 648.28 C 178.81 648.28 178.81 648.28 178.62 648.1 C 178.24 648.28 177.67 648.47 177.29 648.84 C 176.91 648.84 176.53 649.22 176.72 649.59 C 176.72 649.97 177.1 650.34 177.29 650.72 C 177.48 650.72 178.05 650.53 178.24 650.34 C 178.43 649.78 178.62 649.03 178.81 648.28 Z" stroke="none" fill="none"/>
</g>
<g id="layout-shape-81" data-name="Freeform 12">
<path d="M 172.16 652.15 C 172.53 651.58 172.91 651.02 173.29 650.27 C 173.48 651.4 173.85 652.34 173.48 653.46 C 172.72 655.34 171.97 657.4 171.22 659.28 C 170.84 660.22 170.84 661.16 170.46 662.28 C 169.9 662.1 169.33 662.1 168.96 661.91 C 167.83 661.53 167.07 660.59 167.45 659.47 C 167.83 658.15 168.2 656.84 168.58 655.53 C 168.96 654.4 169.14 653.09 168.2 651.96 C 167.83 651.21 168.2 651.02 168.77 651.02 C 169.71 651.21 169.71 650.83 169.9 650.08 C 170.09 648.77 170.46 647.64 170.84 646.14 C 170.09 646.33 169.33 646.7 168.58 646.89 C 168.01 647.08 167.45 646.89 166.89 646.89 C 166.7 646.7 166.51 646.33 166.51 646.14 C 166.7 645.95 166.89 645.77 167.07 645.77 C 167.83 645.39 168.77 645.39 169.52 645.2 C 170.09 644.83 170.65 644.45 171.4 644.26 C 171.78 644.08 172.53 643.89 172.53 644.08 C 172.91 644.45 173.1 645.02 173.1 645.58 C 173.29 645.58 173.1 645.77 172.91 645.95 C 171.59 647.46 171.78 649.33 171.59 651.02 C 171.59 651.4 171.78 651.77 171.78 652.15 C 171.97 652.15 171.97 652.15 172.16 652.15 Z" stroke="none" fill="none"/>
</g>
</g>
</g>
</g></svg>