<svg xmlns="http://www.w3.org/2000/svg" xmlns:xlink="http://www.w3.org/1999/xlink" version="1.1" width="1280" height="720" viewBox="0 0 1280 720"><defs><filter id="fx1" x="-25%" y="-25%" width="150%" height="150%"><feDropShadow dx="0" dy="0" stdDeviation="5.33" flood-color="#000000" flood-opacity="0.22"/></filter></defs><g id="layout-shape-35" data-name="PA-矩形 7">
<rect x="1194.02" y="0" width="85.98" height="720" fill="#A13F0B" stroke="none" stroke-width="1"/>
</g>
<g id="layout-shape-33" data-name="PA-矩形 7">
<rect x="0" y="0" width="1194.69" height="720" fill="#006C39" stroke="none" stroke-width="1"/>
</g>
<g id="layout-shape-11" data-name="直接连接符 10">
<line x1="1194.02" y1="0" x2="1194.02" y2="720" stroke-width="1.333" stroke="#FFFFFF" fill="#006C39"/>
</g>
<g id="layout-shape-37" data-name="图片 36">
<image href="../assets/image4.png" x="-274.08" y="16.91" width="713.04" height="686.17" preserveAspectRatio="none"/>
</g>
<g id="layout-shape-3" data-name="矩形 2">
<rect x="0" y="158" width="1280" height="404" fill="#FFFFFF" stroke="none" stroke-width="1" filter="url(#fx1)"/>
</g>
<g id="layout-shape-31" data-name="任意多边形: 形状 30" transform="translate(867.34 407.72) scale(1 -1) translate(-867.34 -407.72)">
<path d="M 1194.69 417.86 L 592.16 417.86 L 563.69 397.57 C 563.77 404.42 563.37 411.02 563.45 417.86 L 539.99 417.86" fill="none" stroke-width="3" stroke="#006C39"/>
</g>
<g id="layout-shape-48" data-name="标题 47" data-ph-type="title">
<rect x="539.99" y="268.61" width="651.56" height="126.02" fill="#F8FAFC" fill-opacity="0.18" stroke="#94A3B8" stroke-dasharray="6 4" stroke-width="1"/><text x="547.99" y="286.61" font-size="12" fill="#64748B">ph title</text>
</g>
<g id="layout-shape-60" data-name="文本占位符 87" data-ph-type="body">
<rect x="539.32" y="244.6" width="541.16" height="27.14" fill="#F8FAFC" fill-opacity="0.18" stroke="#94A3B8" stroke-dasharray="6 4" stroke-width="1"/><text x="547.32" y="262.6" font-size="12" fill="#64748B">ph body idx=13</text>
</g>
<g id="layout-shape-38" data-name="文本占位符 53" data-ph-type="body">
<rect x="539.99" y="439.37" width="654.03" height="39.1" fill="#F8FAFC" fill-opacity="0.18" stroke="#94A3B8" stroke-dasharray="6 4" stroke-width="1"/><text x="547.99" y="457.37" font-size="12" fill="#64748B">ph body idx=16</text>
</g>
<g id="layout-shape-8" data-name="图片 7">
<image href="../assets/image6.png" x="116.67" y="247.71" width="299.78" height="227.78" preserveAspectRatio="none"/>
</g></svg>