<svg xmlns="http://www.w3.org/2000/svg" xmlns:xlink="http://www.w3.org/1999/xlink" version="1.1" width="1280" height="720" viewBox="0 0 1280 720"><defs><linearGradient id="ggrad1" x1="0" y1="0.5" x2="1" y2="0.5"><stop offset="0" stop-color="#006C39" stop-opacity="0"/><stop offset="0.522" stop-color="#006C39"/><stop offset="1" stop-color="#006C39" stop-opacity="0"/></linearGradient></defs><rect x="0" y="0" width="1280" height="720" fill="#FFFFFF"/>
<g id="layout-shape-6" data-name="PA-矩形 7">
<rect x="0" y="0" width="1280" height="720" fill="#006C39" stroke="none" stroke-width="1"/>
</g>
<g id="layout-shape-7" data-name="PA-矩形 7">
<rect x="0" y="0" width="1280" height="720" fill="url(#ggrad1)" stroke="none" stroke-width="1"/>
</g>
<g id="layout-shape-8" data-name="任意多边形: 形状 19" transform="translate(640 517.29) scale(-1 -1) translate(-640 -517.29)">
<path d="M 466.36 639.9 L 466.36 573.42 L 466.36 571.07 L 466.36 394.67 L 640.51 521.76 L 813.64 394.67 L 813.64 571.07 L 813.64 573.42 L 813.64 639.9" fill="none" stroke-width="6" stroke="#FFFFFF"/>
</g>
<g id="layout-shape-11" data-name="矩形 3">
<path d="M 466.36 256.53 L 466.36 106.57 L 813.64 106.57 L 813.64 256.53" fill="none" stroke-width="6" stroke="#FFFFFF"/>
</g>
<g id="layout-shape-12" data-name="等腰三角形 11" transform="translate(640 410.36) scale(1 -1) translate(-640 -410.36)">
<polygon points="640,402.33 649.32,418.39 630.68,418.39" fill="#FFFFFF" stroke-width="0.667" stroke="#FFFFFF"/>
</g>
<g id="layout-shape-13" data-name="图片 12">
<image href="../assets/image7.png" x="522.28" y="147.11" width="236.88" height="66.3" preserveAspectRatio="none"/>
</g>
<g id="shape-11" data-name="文本框 10">
<rect x="192.52" y="245.33" width="894.95" height="151.87" fill="none"/>
<text x="640" y="300" text-anchor="middle" xml:space="preserve" font-family="&quot;微软雅黑&quot;, sans-serif" font-size="58.67" fill="#FFFFFF"><tspan fill="#FFFFFF" font-size="58.67">谢谢观看</tspan></text>
<text x="640" y="370.4" text-anchor="middle" xml:space="preserve" font-family="&quot;微软雅黑&quot;, sans-serif" font-size="58.67" fill="#FFFFFF"><tspan fill="#FFFFFF" font-size="58.67">敬请各位老师批评指正</tspan></text>
</g>
<g id="shape-16" data-name="文本框 15">
<rect x="530.46" y="429.32" width="220.54" height="60.1" fill="none"/>
<text x="640.72" y="447.72" text-anchor="middle" xml:space="preserve" font-family="&quot;微软雅黑&quot;, sans-serif" font-size="16" fill="#FFFFFF" letter-spacing="1.33"><tspan fill="#FFFFFF" font-size="16" letter-spacing="1.33">答辩人：北小理</tspan></text>
<text x="640.72" y="468.52" text-anchor="middle" xml:space="preserve" font-family="&quot;微软雅黑&quot;, sans-serif" font-size="16" fill="#FFFFFF" letter-spacing="1.33"><tspan fill="#FFFFFF" font-size="16" letter-spacing="1.33">导　师：京小工</tspan></text>
</g></svg>